<?xml version="1.0" encoding="UTF-8" standalone="no"?>
<!-- Created with Inkscape (http://www.inkscape.org/) -->

<svg
   width="495"
   height="494.99997"
   viewBox="0 0 495 494.99998"
   id="svg2"
   version="1.1"
   inkscape:version="1.2.2 (732a01da63, 2022-12-09)"
   sodipodi:docname="Seal_of_the_Department_of_Environment_and_Natural_Resources.svg"
   xmlns:inkscape="http://www.inkscape.org/namespaces/inkscape"
   xmlns:sodipodi="http://sodipodi.sourceforge.net/DTD/sodipodi-0.dtd"
   xmlns="http://www.w3.org/2000/svg"
   xmlns:svg="http://www.w3.org/2000/svg"
   xmlns:rdf="http://www.w3.org/1999/02/22-rdf-syntax-ns#"
   xmlns:cc="http://creativecommons.org/ns#"
   xmlns:dc="http://purl.org/dc/elements/1.1/">
  <title
     id="title6958">Department of Environment and Natural Resources ( DENR )</title>
  <defs
     id="defs4">
    <clipPath
       clipPathUnits="userSpaceOnUse"
       id="clipPath4451">
      <circle
         style="display:inline;fill:none;stroke:#000000;stroke-width:0.99999994px;stroke-linecap:butt;stroke-linejoin:miter;stroke-opacity:1"
         id="circle4453"
         cx="372.04724"
         cy="530.11328"
         r="228.29448" />
    </clipPath>
    <clipPath
       clipPathUnits="userSpaceOnUse"
       id="clipPath4458">
      <circle
         clip-path="none"
         r="201.66658"
         cy="529.64648"
         cx="371.81357"
         id="circle4460"
         style="display:inline;opacity:0.44900004;fill:none;stroke:#ed1c24;stroke-width:1px;stroke-linecap:butt;stroke-linejoin:miter;stroke-opacity:1" />
    </clipPath>
  </defs>
  <sodipodi:namedview
     id="base"
     pagecolor="#ffffff"
     bordercolor="#666666"
     borderopacity="1.0"
     inkscape:pageopacity="0.0"
     inkscape:pageshadow="2"
     inkscape:zoom="2.9900519"
     inkscape:cx="196.48488"
     inkscape:cy="386.61536"
     inkscape:document-units="px"
     inkscape:current-layer="layer5"
     showgrid="false"
     inkscape:object-paths="false"
     inkscape:snap-intersection-paths="false"
     inkscape:object-nodes="false"
     inkscape:snap-smooth-nodes="false"
     inkscape:snap-global="true"
     showguides="true"
     inkscape:guide-bbox="true"
     inkscape:window-width="1920"
     inkscape:window-height="1009"
     inkscape:window-x="1072"
     inkscape:window-y="-8"
     inkscape:window-maximized="1"
     units="px"
     fit-margin-top="0"
     fit-margin-left="0"
     fit-margin-right="0"
     fit-margin-bottom="0"
     inkscape:snap-nodes="true"
     inkscape:snap-object-midpoints="true"
     inkscape:snap-center="true"
     inkscape:snap-bbox="true"
     inkscape:snap-bbox-midpoints="true"
     inkscape:showpageshadow="2"
     inkscape:pagecheckerboard="0"
     inkscape:deskcolor="#d1d1d1" />
  <metadata
     id="metadata7">
    <rdf:RDF>
      <cc:Work
         rdf:about="">
        <dc:format>image/svg+xml</dc:format>
        <dc:type
           rdf:resource="http://purl.org/dc/dcmitype/StillImage" />
        <dc:title>Department of Environment and Natural Resources ( DENR )</dc:title>
      </cc:Work>
    </rdf:RDF>
  </metadata>
  <g
     inkscape:groupmode="layer"
     id="layer5"
     inkscape:label="Blue"
     transform="translate(-612.15509,-287.67891)">
    <ellipse
       ry="244.99998"
       rx="245"
       cy="535.17889"
       cx="859.65509"
       style="color:#000000;display:inline;overflow:visible;visibility:visible;fill:#ffffff;fill-opacity:1;fill-rule:nonzero;stroke:#006c35;stroke-width:5;stroke-miterlimit:4;stroke-dasharray:none;stroke-opacity:1;marker:none;enable-background:accumulate"
       id="path3760-4-6" />
    <path
       sodipodi:type="arc"
       style="color:#000000;display:inline;overflow:visible;visibility:visible;opacity:0.98000004;fill:none;stroke:none;stroke-width:2.87127876;marker:none;enable-background:accumulate"
       id="path6617-7"
       sodipodi:cx="859.62817"
       sodipodi:cy="535.43524"
       sodipodi:rx="204.75247"
       sodipodi:ry="204.75249"
       d="M 762.99812,715.95176 A 204.75247,204.75249 0 0 1 666.73224,466.77131 204.75247,204.75249 0 0 1 898.79401,334.46356 204.75247,204.75249 0 0 1 1064.1917,544.22917 204.75247,204.75249 0 0 1 881.40236,739.02666 L 859.62817,535.43524 Z"
       sodipodi:start="2.0622817"
       sodipodi:end="1.4642509" />
    <ellipse
       style="color:#000000;display:inline;overflow:visible;visibility:visible;opacity:0.98000004;fill:#ffffff;fill-opacity:1;fill-rule:nonzero;stroke:none;stroke-width:2.70234489;marker:none;enable-background:accumulate"
       id="path6617"
       cx="859.65509"
       cy="535.17889"
       rx="192.70621"
       ry="192.7052" />
    <path
       style="display:inline;fill:#0038a8;fill-opacity:1;fill-rule:evenodd;stroke:none;stroke-width:0.95715767"
       d="m 859.6551,342.47368 c -32.52644,0 -63.17471,7.95039 -90.05099,21.98273 l 13.91423,8.64455 v -12.03108 c 5.94108,-0.97099 12.06103,-1.48532 18.28125,-1.48532 6.22018,0 12.31003,0.51433 18.25114,1.48532 v 12.03108 l 14.12505,-8.76338 c 9.01021,2.70854 17.51321,6.50731 25.38897,11.25872 l -39.51402,24.59688 v 18.80414 l 53.57883,-33.33056 c 6.02266,5.05808 11.48328,10.72915 16.29351,16.93264 l -69.87234,43.49014 v 18.80414 l 78.72685,-48.95612 c 3.7897,6.72187 6.88684,13.86279 9.1858,21.35889 l -87.91265,54.68945 v 18.80413 l 91.55685,-56.94712 c 0.69517,4.94424 1.08423,9.98671 1.08423,15.12054 0,3.949 -0.21876,7.83387 -0.63247,11.67461 l -92.00861,57.24419 v 15.38791 h 5.48136 l 81.88918,-50.91674 c -3.12332,9.62034 -7.5593,18.65795 -13.10106,26.91398 h 24.66613 133.38986 C 1050.5725,425.80467 964.97966,342.47368 859.6551,342.47368 Z m -112.00656,35.3803 c -4.65504,3.28384 -9.12897,6.78691 -13.46247,10.45665 l 49.33227,30.68669 v -18.80414 z m -30.59926,26.85457 c -3.6505,3.95814 -7.14534,8.07573 -10.45073,12.32815 l 76.91979,47.85698 v -18.80414 z m -17.58855,22.13126 c -20.56037,30.23809 -32.5569,66.61039 -32.5569,105.7547 0,6.99089 -0.0478,13.7723 0.69776,20.56768 l 63.57274,0.10797 c -16.14583,-13.17747 -28.45646,-30.77263 -34.9964,-50.91674 l 81.85905,50.91674 h 5.48136 v -15.38791 l -91.97849,-57.24419 c -0.41372,-3.84075 -0.63245,-7.72561 -0.63246,-11.67461 1e-5,-5.13382 0.35894,-10.1763 1.05411,-15.12054 l 91.55684,56.94712 V 491.9859 l -87.88252,-54.68945 c 1.09518,-3.57101 2.38116,-7.04955 3.82491,-10.45664 z m 245.54703,121.5585 c -17.48596,0.0179 -37.86083,0.053 -62.10204,0.14853 l -38.77399,20.37858 -174.52708,0.27469 c 1.88813,11.4817 4.42084,21.24556 8.36289,31.96722 l 166.14698,0.16778 38.7912,-18.09119 h 36.08062 l 127.84506,-3e-5 c 2.0153,-11.1798 5.1671,-22.7501 5.1671,-34.66779 -27.6961,0 -54.53285,-0.23153 -106.99074,-0.17776 z m -62.10204,54.12503 -38.7912,20.73505 -156.66795,-0.1731 c 2.8125,5.36948 5.3859,10.13982 8.50024,14.93934 3.95262,6.09138 6.88852,11.39059 12.30156,17.28721 l 135.86615,-0.0299 38.7912,-18.09119 h 36.08062 l 104.95616,-3e-5 c 1.7272,-2.40994 1.9034,-3.11929 3.9521,-6.63604 1.7049,-2.92665 3.7176,-6.85169 5.2809,-9.97651 1.5809,-3.15983 3.4649,-7.13507 4.8068,-10.594 1.0564,-2.72321 1.5999,-4.9067 2.9243,-7.46079 z m 0,53.94678 -38.7912,20.76456 H 728.524 c 13.90225,13.11897 32.38755,24.12186 49.67806,32.82419 l 65.91246,-0.0281 38.7912,-18.06148 h 36.08062 l 53.37659,2e-5 c 12.79421,-10.24896 28.30517,-22.17114 37.82227,-35.49915 z m 0,54.77857 -30.76117,16.44821 c 1.0169,-0.54375 20.29384,-0.80926 26.94509,-0.80926 32.81692,-6.7703 35.94601,-7.49585 59.44183,-15.63895 z"
       id="path3350"
       inkscape:connector-curvature="0"
       sodipodi:nodetypes="scccscccccccccccccccsccccccccscccccccccccscccccccscccccccccccccccsccccscccccssscccccccccccccsccc" />
    <path
       style="display:inline;fill:#006c35;fill-opacity:1;fill-rule:evenodd;stroke:none;stroke-width:0.95715767"
       d="m 944.98649,548.39831 c -17.4845,0.0179 -37.82758,0.0822 -62.06677,0.17779 l -38.78798,20.34958 -174.52709,0.27443 c 1.88817,11.48288 4.4204,21.24472 8.36267,31.96722 l 166.16434,0.19772 38.78806,-18.09145 h 36.07763 l 127.83405,-0.0297 c 2.2822,-7.915 5.1671,-22.73805 5.1671,-34.66784 -27.6938,0 -54.55846,-0.23155 -107.01201,-0.17774 z m -62.09689,54.15473 -38.75786,20.70538 -156.68516,-0.17313 c 4.26638,8.58143 6.74728,11.98774 9.5893,16.64578 2.65569,4.35264 5.41671,8.97727 11.14264,15.58077 h 135.95322 l 38.78798,-18.0915 h 36.07763 l 104.94515,-0.0297 c 7.114,-11.2929 13.3961,-22.48033 16.9641,-34.66734 z m 0,53.94679 -38.75786,20.73505 -115.36352,-2e-4 c 14.45545,15.2212 32.91385,25.33033 49.43385,32.82419 l 65.92967,9.5e-4 38.78798,-18.09074 h 36.07763 53.36558 c 15.05836,-10.07838 28.31857,-22.18896 37.82227,-35.49915 z m 0,54.74886 -30.74493,16.44821 c 34.01716,1.52867 63.76916,-5.99716 86.3868,-16.44821 z"
       id="path3350-5-8"
       inkscape:connector-curvature="0"
       sodipodi:nodetypes="ccccccccccsccccsccccccccccccccccccccc" />
    <ellipse
       style="color:#000000;display:inline;overflow:visible;visibility:visible;opacity:0.98000004;fill:none;stroke:none;stroke-width:2.7023797;stroke-opacity:1;marker:none;enable-background:accumulate"
       id="path6617-5"
       cx="859.65509"
       cy="535.18195"
       rx="192.70813"
       ry="192.70827" />
    <path
       sodipodi:type="arc"
       style="color:#000000;display:inline;overflow:visible;visibility:visible;fill:none;stroke:none;stroke-width:0.59029078;marker:none;enable-background:accumulate"
       id="path3760-4"
       sodipodi:cx="859.65509"
       sodipodi:cy="-535.17889"
       sodipodi:rx="232.57614"
       sodipodi:ry="232.57611"
       d="m 805.53672,-761.37096 a 232.57614,232.57611 0 0 1 133.08257,7.43123"
       transform="scale(1,-1)"
       sodipodi:start="4.4775453"
       sodipodi:end="5.0587953"
       sodipodi:open="true" />
    <g
       style="font-style:normal;font-variant:normal;font-weight:normal;font-stretch:normal;font-size:48px;line-height:125%;font-family:'Old English Text MT';-inkscape-font-specification:'Old English Text MT';letter-spacing:5px;word-spacing:0px;fill:#ffffff;fill-opacity:1;stroke:none"
       id="text6777"
       transform="matrix(0.97029702,0,0,0.97029702,18.257086,23.173634)">
      <path
         inkscape:connector-curvature="0"
         d="m 822.4186,741.33368 -4.89605,0.1987 -0.24486,-5.06332 8.14874,-0.73143 4.01219,0.81552 -5.47657,26.94352 -5.80835,-1.18061 z"
         style="font-style:normal;font-variant:normal;font-weight:bold;font-stretch:normal;font-size:39px;font-family:'Gotham Bold';-inkscape-font-specification:'Gotham Bold';fill:#ffffff"
         id="path6890" />
      <path
         inkscape:connector-curvature="0"
         d="m 846.56411,752.11909 c 1.47596,0.1354 2.65669,-0.14133 3.54218,-0.83022 0.88546,-0.68885 1.38165,-1.61602 1.48858,-2.78149 l 0.007,-0.077 c 0.1116,-1.21679 -0.21772,-2.25215 -0.98795,-3.10607 -0.77027,-0.85387 -1.90602,-1.34968 -3.40727,-1.48741 -1.476,-0.13537 -2.65021,0.14196 -3.52263,0.83201 -0.87245,0.69008 -1.36448,1.64352 -1.47609,2.86032 l -0.007,0.0782 c -0.11163,1.21683 0.21869,2.23913 0.99095,3.06691 0.77223,0.8278 1.89634,1.30939 3.37234,1.44477 z m -2.47615,14.61583 c -1.99353,-0.18287 -3.66206,-0.63611 -5.00559,-1.35974 -1.34354,-0.72362 -2.55408,-1.6181 -3.63161,-2.68345 l 3.56345,-4.25426 c 0.91015,0.89224 1.80094,1.56776 2.67238,2.02656 0.87142,0.45881 1.88987,0.74167 3.05533,0.84858 1.68299,0.15438 3.02337,-0.29715 4.02115,-1.35459 0.99776,-1.05744 1.68444,-2.4956 2.06007,-4.31448 -0.72541,0.50716 -1.55668,0.88746 -2.49383,1.14092 -0.93718,0.25347 -2.00113,0.32559 -3.19186,0.21636 -1.47599,-0.13539 -2.79096,-0.4582 -3.94491,-0.96843 -1.15396,-0.51021 -2.12376,-1.18003 -2.9094,-2.00946 -0.78565,-0.8294 -1.35517,-1.80851 -1.70858,-2.93732 -0.35342,-1.12878 -0.46718,-2.37942 -0.34127,-3.75191 l 0.007,-0.0782 c 0.12582,-1.37166 0.49462,-2.61688 1.1064,-3.73564 0.61176,-1.11873 1.40939,-2.05728 2.39288,-2.81567 0.98347,-0.75834 2.13799,-1.31835 3.46357,-1.68003 1.32555,-0.36163 2.752,-0.47241 4.27936,-0.33233 0.90627,0.0832 1.72306,0.21685 2.45038,0.40107 0.72728,0.18426 1.39096,0.42143 1.99105,0.7115 0.60004,0.29013 1.15466,0.64777 1.66387,1.07292 0.50917,0.42521 0.99876,0.9207 1.46878,1.48649 0.44715,0.53664 0.83641,1.13349 1.16778,1.79053 0.33132,0.65709 0.60142,1.41292 0.8103,2.26749 0.20882,0.85461 0.34279,1.81328 0.40189,2.87603 0.0591,1.06277 0.0268,2.26734 -0.0966,3.61373 l -0.007,0.0782 c -0.20188,2.20055 -0.64549,4.18967 -1.33084,5.96738 -0.68538,1.77772 -1.58583,3.26817 -2.70132,4.47138 -1.11554,1.20321 -2.44435,2.09961 -3.98641,2.68921 -1.54211,0.5896 -3.28423,0.79532 -5.22638,0.61716 z"
         style="font-style:normal;font-variant:normal;font-weight:bold;font-stretch:normal;font-size:39px;font-family:'Gotham Bold';-inkscape-font-specification:'Gotham Bold';fill:#ffffff"
         id="path6892" />
      <path
         inkscape:connector-curvature="0"
         d="m 875.26535,762.6716 c 1.48128,-0.0512 2.62642,-0.41595 3.43541,-1.09416 0.80897,-0.67821 1.19682,-1.49825 1.16357,-2.46015 l -0.003,-0.0773 c -0.0369,-1.06576 -0.50711,-1.87558 -1.41069,-2.42946 -0.90361,-0.55387 -2.04411,-0.80699 -3.42151,-0.75936 -1.37742,0.0477 -2.49771,0.37896 -3.36087,0.99393 -0.86318,0.61499 -1.27633,1.45537 -1.23946,2.52113 l 0.003,0.0773 c 0.0324,0.93573 0.47571,1.72048 1.33008,2.35425 0.85435,0.63379 2.02217,0.92506 3.50347,0.87383 z m -0.40036,-11.57597 c 1.19501,-0.0413 2.13263,-0.38595 2.81287,-1.03392 0.6802,-0.64794 1.00369,-1.45246 0.97046,-2.41358 l -0.003,-0.0785 c -0.0288,-0.83103 -0.39218,-1.55979 -1.09026,-2.18629 -0.69811,-0.62646 -1.67084,-0.91813 -2.91819,-0.87502 -1.24737,0.0432 -2.19785,0.3948 -2.85144,1.05491 -0.65361,0.66016 -0.96603,1.40575 -0.93728,2.23677 l 0.003,0.0785 c 0.0332,0.96111 0.41176,1.7479 1.13558,2.36038 0.7238,0.61251 1.68322,0.89809 2.87826,0.85674 z m 0.57158,16.52656 c -1.50747,0.0521 -2.91083,-0.0881 -4.21008,-0.42066 -1.29926,-0.33258 -2.42846,-0.82685 -3.38758,-1.48281 -0.95913,-0.65596 -1.72157,-1.45548 -2.28731,-2.39856 -0.56574,-0.94307 -0.86928,-2.01211 -0.91061,-3.20715 l -0.003,-0.0785 c -0.0575,-1.66288 0.2661,-3.02038 0.97085,-4.07251 0.70474,-1.0521 1.773,-1.94113 3.20476,-2.6671 -1.08745,-0.6126 -1.95896,-1.36944 -2.61455,-2.27052 -0.65559,-0.90105 -1.00899,-2.09183 -1.06019,-3.57235 l -0.003,-0.0785 c -0.036,-1.03957 0.15774,-2.02182 0.58107,-2.94672 0.42333,-0.92486 1.04557,-1.73972 1.86674,-2.44457 0.82115,-0.70481 1.80962,-1.27232 2.9654,-1.70253 1.15576,-0.43017 2.46121,-0.67042 3.91634,-0.72078 1.42894,-0.0494 2.74133,0.10033 3.93716,0.44916 1.1958,0.34888 2.22743,0.83998 3.09489,1.47328 0.86742,0.63335 1.54448,1.40327 2.03117,2.30976 0.48665,0.90653 0.74796,1.87958 0.78394,2.91916 l 0.003,0.0785 c 0.0512,1.48052 -0.21911,2.69287 -0.81086,3.63706 -0.59179,0.94422 -1.40932,1.75948 -2.45261,2.44578 1.40257,0.68033 2.51046,1.4941 3.32367,2.4413 0.81318,0.94724 1.24764,2.22651 1.30339,3.83785 l 0.003,0.0773 c 0.044,1.27354 -0.18312,2.41314 -0.68144,3.41882 -0.49837,1.00568 -1.20349,1.86906 -2.11537,2.59012 -0.91192,0.72107 -2.00468,1.28584 -3.27829,1.6943 -1.27365,0.40846 -2.66379,0.63875 -4.17045,0.69086 z"
         style="font-style:normal;font-variant:normal;font-weight:bold;font-stretch:normal;font-size:39px;font-family:'Gotham Bold';-inkscape-font-specification:'Gotham Bold';fill:#ffffff"
         id="path6894" />
      <path
         inkscape:connector-curvature="0"
         d="m 904.56965,742.04854 -12.67334,2.00773 -0.81177,-5.12412 19.41381,-3.07556 0.70785,4.46817 -8.53112,24.41214 -6.70168,1.06169 z"
         style="font-style:normal;font-variant:normal;font-weight:bold;font-stretch:normal;font-size:39px;font-family:'Gotham Bold';-inkscape-font-specification:'Gotham Bold';fill:#ffffff"
         id="path6896" />
    </g>
    <ellipse
       ry="4.8514853"
       rx="4.8514857"
       cy="740.61884"
       cx="783.58154"
       style="color:#000000;display:inline;overflow:visible;visibility:visible;opacity:0.98000004;fill:#ffffff;fill-opacity:1;stroke:none;stroke-width:1.51269007;marker:none;enable-background:accumulate"
       id="path6784" />
    <ellipse
       ry="4.8514853"
       rx="4.8514857"
       cy="740.61884"
       cx="930.81195"
       style="color:#000000;display:inline;overflow:visible;visibility:visible;opacity:0.98000004;fill:#ffffff;fill-opacity:1;stroke:none;stroke-width:1.51269007;marker:none;enable-background:accumulate"
       id="path6784-8" />
    <ellipse
       style="opacity:1;fill:none;fill-opacity:1;fill-rule:nonzero;stroke:none;stroke-width:0.12884209;stroke-linecap:square;stroke-linejoin:bevel;stroke-miterlimit:4;stroke-dasharray:none;stroke-dashoffset:0;stroke-opacity:1"
       id="path1771"
       cx="535.43524"
       cy="-859.62817"
       rx="207.43558"
       ry="207.43559"
       transform="rotate(90)" />
    <ellipse
       style="opacity:1;fill:none;fill-opacity:1;fill-rule:nonzero;stroke:none;stroke-width:0.14281292;stroke-linecap:square;stroke-linejoin:bevel;stroke-miterlimit:4;stroke-dasharray:none;stroke-dashoffset:0;stroke-opacity:1"
       id="path1771-5"
       cx="-534.85474"
       cy="-859.62817"
       rx="229.92859"
       ry="229.9286"
       transform="matrix(0,-1,-1,0,0,0)" />
    <circle
       style="opacity:1;fill:#006c35;fill-opacity:1;fill-rule:nonzero;stroke:#006c35;stroke-width:0.131846;stroke-linecap:square;stroke-linejoin:bevel;stroke-miterlimit:4;stroke-dasharray:none;stroke-dashoffset:0;stroke-opacity:1"
       id="path1900"
       cx="779.54102"
       cy="735.99719"
       r="3.9340773" />
    <circle
       style="opacity:1;fill:#006c35;fill-opacity:1;fill-rule:nonzero;stroke:#006c35;stroke-width:0.131846;stroke-linecap:square;stroke-linejoin:bevel;stroke-miterlimit:4;stroke-dasharray:none;stroke-dashoffset:0;stroke-opacity:1"
       id="path1900-5"
       cx="935.21045"
       cy="737.99689"
       r="3.9340773" />
    <g
       aria-label="DEPARTMENT OF ENVIRONMENT AND NATURAL RESOURCES."
       id="text4880"
       style="font-weight:600;font-size:32px;font-family:'Bembo Std';-inkscape-font-specification:'Bembo Std Semi-Bold';letter-spacing:1.75px;word-spacing:1px;fill:#006c35;stroke:#000000">
      <path
         d="m 749.48178,714.57708 -7.14631,10.57787 q -0.97967,1.45009 -0.78087,2.24437 0.1771,0.79849 1.72236,1.80474 l -0.48108,0.7121 q -0.82863,-0.55981 -4.27397,-2.66118 -1.47213,-0.91913 -3.82852,-2.51108 -6.17582,-4.17233 -6.93186,-8.07729 -0.73923,-3.81819 1.53499,-7.18446 0.83097,-1.22999 1.96358,-2.18076 1.1326,-0.95077 2.72256,-1.57371 1.56827,-0.61873 3.34126,-0.70316 1.7513,-0.0802 3.94423,0.60931 2.18418,0.7025 4.42405,2.21573 l 8.24738,5.57185 -0.48109,0.7121 q -1.1523,-0.77849 -1.79265,-0.94711 -0.64034,-0.16862 -1.08856,0.13198 -0.45697,0.31355 -1.0955,1.2587 z m -11.75601,11.06521 8.95694,-13.25794 q 0.84847,-1.25588 0.73926,-1.81993 -0.11795,-0.55111 -1.41267,-1.42581 -2.27871,-1.53947 -3.97896,-2.0093 -1.72194,-0.46564 -3.349,-0.15062 -3.47108,0.67203 -5.92024,4.29725 -2.45792,3.63817 -1.79849,7.04416 0.32762,1.69215 1.42397,3.11168 1.09636,1.41952 3.37507,2.95899 1.26882,0.85721 1.96412,1.25152 z"
         style="stroke:none"
         id="path7436" />
      <path
         d="m 719.05403,687.0938 13.17933,11.27435 -0.55864,0.65303 q -1.48416,-1.26964 -2.25536,-1.35363 -0.7712,-0.084 -1.64471,0.93712 l -8.95854,10.47222 q -0.40628,0.47493 -0.5635,0.87505 -0.16739,0.41199 -0.14336,0.72042 0.002,0.31014 0.2871,0.69796 0.27494,0.3997 0.57348,0.67566 0.2884,0.28783 0.88206,0.79568 l -0.55864,0.65303 -12.43131,-10.63445 2.9045,-3.82792 0.65303,0.55864 -0.31802,0.61212 q -0.30615,0.62228 -0.48369,1.04614 -0.17754,0.42387 -0.21445,0.80353 -0.0369,0.37966 0.004,0.62028 0.029,0.23046 0.26321,0.5336 0.21214,0.30485 0.43945,0.51987 0.21543,0.20485 0.67849,0.60098 l 4.27438,3.65654 4.84492,-5.66354 -3.76382,-3.2198 q -0.58179,-0.49769 -0.90738,-0.69397 -0.33746,-0.20643 -0.72385,-0.18741 -0.39826,0.009 -0.77593,0.28208 -0.37767,0.27323 -0.99567,0.87547 l -0.65303,-0.55864 4.17455,-4.87991 0.65303,0.55864 q -0.50943,0.71569 -0.71744,1.17517 -0.21988,0.44933 -0.16696,0.84416 0.0309,0.39655 0.27694,0.70984 0.23417,0.30313 0.78034,0.77036 l 3.76383,3.21979 3.77843,-4.41685 q 0.97508,-1.13984 0.98982,-1.66184 0.0147,-0.52201 -0.91136,-1.31426 l -2.70711,-2.31581 q -0.78364,-0.67037 -1.30935,-1.01728 -0.53759,-0.35708 -1.03942,-0.53962 -0.52386,-0.18083 -1.04572,-0.0515 -0.53374,0.11915 -1.09952,0.39595 -0.58782,0.27851 -1.43972,0.86573 l -0.65303,-0.55864 z"
         style="stroke:none"
         id="path7433" />
      <path
         d="m 716.57713,684.65145 -0.61425,0.60102 q -0.85308,-0.80483 -1.40331,-1.0097 -0.5614,-0.19395 -1.20578,0.13051 -0.65531,0.3133 -1.69395,1.32957 l -8.14157,7.96626 q -0.85994,0.84142 -1.24134,1.36764 -0.39257,0.53713 -0.37625,1.06767 -0.006,0.5303 0.299,0.95349 0.29361,0.43411 1.02576,1.18238 l -0.61425,0.60102 q -0.69937,-0.71476 -2.37274,-2.29091 -2.78895,-2.62692 -3.084,-2.92846 -3.32201,-3.39511 -3.99049,-5.93265 -0.67965,-2.52661 1.58748,-4.74493 2.01027,-1.96697 4.7475,-1.6941 2.73723,0.27287 5.10853,2.69636 0.96163,0.98279 1.67949,2.02923 l 3.12707,-3.05974 q 1.32901,-1.30039 1.27258,-2.20704 -0.0785,-0.90689 -1.61908,-2.50369 l 0.61425,-0.60102 z m -18.07436,8.94097 7.09176,-6.93906 q -0.63139,-0.86871 -0.84995,-1.09207 -1.5408,-1.5747 -3.5855,-1.51961 -2.05587,0.066 -3.74225,1.71609 -0.63659,0.62288 -1.04201,1.32561 -0.40542,0.70274 -0.56971,1.58489 -0.17521,0.87098 0.20052,1.88054 0.37574,1.00957 1.33737,1.99236 0.57916,0.59191 1.15977,1.05125 z"
         style="stroke:none"
         id="path7430" />
      <path
         d="m 705.489,673.43635 -0.67069,0.53731 q -0.5495,-0.66092 -0.90355,-0.97791 -0.36624,-0.30721 -0.86656,-0.40692 -0.52227,-0.10213 -1.08099,0.0251 -0.5685,0.11508 -1.57363,0.45984 l -15.99189,5.40388 -0.4778,0.70311 -2.23716,-2.79251 9.10368,-15.30153 q 0.7361,-1.23038 0.95775,-1.82838 0.21188,-0.6102 0.0724,-1.15915 -0.16144,-0.55138 -0.81598,-1.3684 l 0.67069,-0.53731 5.94948,7.42636 -0.67069,0.53731 q -1.18208,-1.47552 -1.79727,-1.84357 -0.61519,-0.36805 -1.15174,0.0618 -0.4268,0.34192 -1.05565,1.40629 l -2.13021,3.68863 4.58178,5.71916 4.30599,-1.44757 q 0.92462,-0.32031 1.25386,-0.58408 0.57314,-0.45915 0.38475,-1.16913 -0.21034,-0.71239 -1.41189,-2.11225 l 0.67069,-0.53731 z m -11.71284,0.27404 -3.81978,-4.76799 -4.40191,7.45056 z"
         style="stroke:none"
         id="path7427" />
      <path
         d="m 679.63652,652.74621 3.58233,-2.22819 q 0.94202,-0.58593 1.38341,-0.97088 0.42813,-0.3767 0.57002,-0.88817 0.14189,-0.51148 -0.10035,-1.07844 -0.25551,-0.55871 -0.88448,-1.51076 l 0.72973,-0.45389 5.17434,8.31896 -0.72974,0.45389 q -0.50987,-0.87892 -0.90809,-1.31206 -0.40647,-0.44641 -0.8817,-0.50044 -0.48348,-0.0673 -0.92278,0.11394 -0.44755,0.16797 -1.19055,0.63011 l -10.90619,6.78358 q -0.71647,0.44563 -1.05172,0.76457 -0.33525,0.31893 -0.42731,0.7626 -0.11357,0.43866 0.10391,0.96582 0.20422,0.53541 0.74063,1.39782 l -0.72973,0.45389 q -0.16505,-0.26535 -0.52994,-0.79283 -0.36489,-0.52748 -0.97088,-1.38342 -0.60599,-0.85593 -1.10292,-1.5957 -0.9526,-1.41319 -2.1162,-3.28395 -0.99031,-1.59215 -1.50393,-3.03917 -0.52688,-1.43876 -0.58743,-2.54196 -0.0688,-1.11646 0.2297,-2.05656 0.29025,-0.95338 0.83989,-1.60806 0.52811,-0.6597 1.29765,-1.13835 2.99854,-1.86507 6.56062,0.66677 0.0414,-0.76179 0.60813,-3.19359 l 0.68031,-2.87047 q 0.6871,-2.9483 0.62199,-5.0055 -0.0651,-2.0572 -0.94069,-3.84951 l 0.76953,-0.47864 q 1.03836,1.58065 1.66669,2.82751 0.62834,1.24686 0.95748,2.21979 0.30762,0.96792 0.33516,2.01804 0.0193,1.03686 -0.0985,1.88295 -0.13104,0.85434 -0.447,2.21012 l -0.54667,2.34573 q -0.40625,1.74315 -0.53551,2.54118 -0.14252,0.80629 -0.24119,2.00851 1.04693,1.44652 1.50196,2.41476 z m -9.27424,5.76851 8.50471,-5.28987 q -0.267,-0.60676 -0.45681,-0.91192 -1.76992,-2.57931 -3.4765,-3.04509 -1.72811,-0.47081 -3.86424,0.85785 -2.09632,1.3039 -2.53589,3.14139 -0.44783,1.82421 0.91384,4.01341 0.51166,0.82261 0.91489,1.23423 z"
         style="stroke:none"
         id="path7424" />
      <path
         d="m 663.6911,639.18173 -5.23677,1.82554 -0.36593,-0.77757 q 0.26029,-0.36426 0.19043,-0.65949 -0.0948,-0.42164 -0.58051,-1.45369 l -5.76846,-12.25735 q -0.51897,-1.10273 -0.75682,-1.38798 -0.23785,-0.28525 -0.6229,-0.25946 l -0.36593,-0.77757 4.74441,-2.87173 0.39921,0.84826 q -0.85907,0.55971 -1.35139,0.98136 -0.50646,0.4283 -0.77341,0.77842 -0.26694,0.35013 -0.27691,0.76927 -0.0166,0.40501 0.094,0.75013 0.11061,0.34513 0.39005,0.93891 l 1.94944,4.14233 13.64284,-6.42049 q 0.53723,-0.25283 0.84909,-0.43413 0.29107,-0.18879 0.52808,-0.45575 0.21622,-0.27444 0.26445,-0.5389 0.0274,-0.27195 -0.0458,-0.72103 -0.0873,-0.44243 -0.29858,-0.96469 -0.21124,-0.52226 -0.59048,-1.32811 l 0.77757,-0.36593 4.67731,9.93877 -0.77757,0.36594 q -0.70526,-1.4986 -1.20841,-2.09071 -0.5098,-0.60625 -1.07531,-0.63368 -0.58631,-0.0349 -1.59008,0.43747 l -13.64284,6.42049 1.94943,4.14234 q 0.27279,0.57964 0.46823,0.88485 0.19544,0.3052 0.52478,0.56467 0.32267,0.24532 0.76261,0.26278 0.43994,0.0174 1.09942,-0.0857 0.64535,-0.0965 1.62417,-0.40171 z"
         style="stroke:none"
         id="path7421" />
      <path
         d="m 667.09683,611.48819 -0.81913,0.25989 q -0.32132,-1.01275 -0.67087,-1.4428 -0.36444,-0.42533 -1.07501,-0.49495 -0.71058,-0.0696 -2.07933,0.26629 l -11.46115,2.83305 q -0.83259,0.16581 -1.36475,0.40021 -0.55177,0.22424 -0.87069,0.40739 -0.31892,0.18315 -0.41259,0.50793 -0.10856,0.32951 -0.0642,0.67607 0.0295,0.35128 0.20905,0.91723 l -0.81913,0.25988 -1.79087,-5.64459 12.03037,-11.0624 -16.09408,-1.7459 -1.79086,-5.64459 0.81913,-0.25989 q 0.40637,1.28083 0.88667,1.55465 0.47557,0.25893 1.50465,-0.16592 l 13.53096,-5.50604 q 1.07376,-0.43902 1.22042,-1.01012 0.12704,-0.58126 -0.33131,-2.02592 l 0.81914,-0.25988 2.75009,8.66794 -0.81914,0.25989 q -0.20791,-0.65531 -0.40451,-1.06832 -0.19661,-0.413 -0.45422,-0.7083 -0.27251,-0.29057 -0.59257,-0.36934 -0.33495,-0.0741 -0.78977,-0.0609 -0.46971,0.0179 -1.05599,0.23668 -0.60118,0.22352 -1.39597,0.50847 l -10.99951,4.39142 0.0189,0.0596 18.15606,1.99328 0.33077,1.04254 -13.24606,12.08741 0.0189,0.0596 11.50583,-2.84724 q 0.50093,-0.12614 0.90777,-0.23883 0.38723,-0.12286 0.70071,-0.27149 0.29859,-0.14391 0.53216,-0.23441 0.21395,-0.10066 0.36976,-0.28124 0.13619,-0.19074 0.23644,-0.28812 0.0955,-0.11227 0.12889,-0.36874 0.0185,-0.25176 0.0301,-0.37019 0.0116,-0.11843 -0.0429,-0.44536 -0.0593,-0.34183 -0.0916,-0.49549 -0.0371,-0.16855 -0.13961,-0.59502 l 0.81914,-0.25989 z"
         style="stroke:none"
         id="path7418" />
      <path
         d="m 654.99242,564.56798 3.15184,17.05496 -0.84507,0.15617 q -0.35493,-1.9206 -0.90157,-2.47105 -0.54663,-0.55046 -1.86801,-0.30626 l -13.55177,2.50443 q -0.6146,0.11358 -0.98853,0.32569 -0.38929,0.21495 -0.56465,0.46981 -0.19355,0.24234 -0.21592,0.72316 -0.0377,0.48366 0.0207,0.88599 0.0431,0.40516 0.18508,1.1734 l -0.84507,0.15617 -2.97295,-16.08697 4.66589,-1.14829 0.15617,0.84507 -0.63229,0.27574 q -0.62945,0.29111 -1.03411,0.5089 -0.40466,0.21779 -0.6722,0.48969 -0.26755,0.2719 -0.38712,0.48467 -0.12242,0.19741 -0.13109,0.58036 -0.0269,0.37043 0.0145,0.68056 0.0386,0.29478 0.14933,0.894 l 1.02222,5.53134 7.32902,-1.35444 -0.90012,-4.87065 q -0.13914,-0.75287 -0.26874,-1.11027 -0.13245,-0.37276 -0.44476,-0.60106 -0.31516,-0.24366 -0.78061,-0.26887 -0.46546,-0.0252 -1.32472,0.0541 l -0.15617,-0.84506 6.31494,-1.16704 0.15617,0.84507 q -0.84623,0.23584 -1.29699,0.46214 -0.45359,0.21095 -0.66084,0.55115 -0.22546,0.32768 -0.23129,0.726 -0.009,0.38295 0.12194,1.08973 l 0.90012,4.87065 5.71571,-1.05629 q 1.47503,-0.27259 1.81488,-0.66908 0.33986,-0.39649 0.11838,-1.59495 l -0.64741,-3.50318 q -0.1874,-1.01407 -0.37781,-1.61447 -0.19324,-0.61576 -0.46848,-1.07336 -0.29345,-0.47013 -0.78045,-0.69792 -0.48985,-0.24315 -1.10378,-0.38393 -0.63213,-0.1533 -1.66375,-0.23277 l -0.15618,-0.84507 z"
         style="stroke:none"
         id="path7415" />
      <path
         d="m 653.21053,541.22573 -15.39724,16.69653 12.25431,-0.813 q 1.02899,-0.0683 1.58405,-0.19905 0.53947,-0.12975 0.9387,-0.48508 0.3826,-0.36989 0.46595,-1.00179 0.0678,-0.63087 -0.067,-1.71809 l 0.85749,-0.0569 0.50683,7.63946 -0.85749,0.0569 q -0.0257,-0.85956 -0.18457,-1.36578 -0.17548,-0.52077 -0.53813,-0.79424 -0.37824,-0.27244 -0.86776,-0.33391 -0.50511,-0.0604 -1.33142,-0.006 l -14.37465,0.95368 q -0.46063,0.60995 -0.63959,1.21688 -0.19456,0.60797 -0.21148,1.53299 l -0.85749,0.0569 -0.38375,-5.78416 14.10068,-15.23249 -11.428,0.75819 q -0.63922,0.0424 -1.04148,0.11607 -0.40329,0.0581 -0.72242,0.20452 -0.33472,0.14749 -0.49277,0.36154 -0.15805,0.21406 -0.25795,0.59651 -0.0999,0.38245 -0.10005,0.85224 -1.5e-4,0.4698 0.064,1.20153 l -0.85749,0.0569 -0.51201,-7.7174 0.85749,-0.0569 q 0.0569,0.85749 0.18354,1.35018 0.12561,0.47711 0.46121,0.81501 0.33457,0.32231 0.88956,0.42642 0.55395,0.0885 1.4738,0.0275 l 16.37026,-1.08608 z"
         style="stroke:none"
         id="path7412" />
      <path
         d="m 637.92505,532.60738 -5.47208,-0.90152 0.0505,-0.85789 q 0.40282,-0.1954 0.48267,-0.48808 0.1184,-0.41563 0.18549,-1.55428 l 0.79674,-13.52343 q 0.0717,-1.21664 -7.7e-4,-1.58091 -0.0725,-0.36426 -0.42293,-0.52578 l 0.0505,-0.85789 5.54008,-0.25273 -0.0551,0.93588 q -1.02214,0.0806 -1.65616,0.21547 -0.64963,0.1339 -1.05152,0.3137 -0.4019,0.1798 -0.61113,0.54312 -0.20831,0.34772 -0.27624,0.70372 -0.0679,0.356 -0.10653,1.01111 l -0.26926,4.5702 15.05203,0.88681 q 0.59272,0.0349 0.95331,0.0249 0.34591,-0.0266 0.68174,-0.14766 0.32115,-0.1376 0.48999,-0.34678 0.15417,-0.2257 0.30468,-0.65509 0.13492,-0.43031 0.1992,-0.99 0.0643,-0.55969 0.11666,-1.44877 l 0.85789,0.0505 -0.64604,10.96536 -0.85788,-0.0505 q 0.0974,-1.65339 -0.0613,-2.41403 -0.15774,-0.77625 -0.64125,-1.07082 -0.49819,-0.31109 -1.60565,-0.37634 l -15.05202,-0.8868 -0.26926,4.5702 q -0.0377,0.63951 -0.012,1.00102 0.0257,0.36151 0.19078,0.74689 0.16604,0.36978 0.54404,0.59553 0.378,0.22575 1.00649,0.4506 0.61289,0.22393 1.61849,0.42405 z"
         style="stroke:none"
         id="path7409" />
      <path
         d="m 647.50759,493.23908 q -2.30146,-0.58644 -4.0689,-1.93976 -1.76744,-1.35332 -2.78233,-3.19211 -1.02617,-1.85778 -1.29623,-4.15174 -0.26621,-2.30911 0.35495,-4.74684 0.84493,-3.31592 2.74239,-5.57355 1.88232,-2.2615 4.48588,-3.11377 2.60741,-0.8674 5.4691,-0.13822 2.08948,0.53242 3.78893,1.83617 1.68431,1.29989 2.74849,3.13511 1.06803,1.82007 1.3755,4.22032 0.2962,2.38124 -0.35197,4.92496 -0.81406,3.19479 -2.69252,5.44114 -1.8936,2.2425 -4.4556,3.12148 -2.57713,0.87513 -5.31769,0.17681 z m 0.1202,-3.95207 q 1.81694,0.46297 3.48837,0.42126 1.66014,-0.0607 2.96221,-0.55126 1.30207,-0.49056 2.34791,-1.30439 1.03069,-0.8177 1.69858,-1.85683 0.67175,-1.05428 0.97654,-2.25043 0.82564,-3.24022 -1.06511,-5.81816 -1.90203,-2.59693 -5.80846,-3.59233 -4.20925,-1.07256 -7.44866,0.44002 -3.25456,1.50873 -4.1265,4.93064 -0.85651,3.36134 1.03039,5.95442 1.88689,2.59308 5.94473,3.62706 z"
         style="stroke:none"
         id="path7406" />
      <path
         d="m 656.88239,459.34123 5.62027,2.14485 q 1.79556,0.68524 2.51396,0.42423 0.71841,-0.26102 1.3535,-1.9252 l 0.8029,0.30641 -3.13649,8.21872 -0.8029,-0.3064 q 0.52368,-1.37222 0.17642,-2.03992 -0.36185,-0.67327 -1.63189,-1.15795 l -12.46677,-4.75765 q -1.22624,-0.46797 -1.90296,-0.14088 -0.67672,0.32709 -1.16697,1.61172 l -0.8029,-0.30641 5.43175,-14.23313 3.73712,1.42618 -0.31198,0.81749 q -1.52801,-0.46606 -2.20896,-0.0402 -0.67538,0.41123 -1.37176,2.23599 l -1.7883,4.68598 6.61294,2.52368 1.7883,-4.68599 q 0.52924,-1.38682 0.35159,-1.97306 -0.17765,-0.58625 -1.33915,-1.18003 l 0.31198,-0.81749 5.50348,2.10028 -0.31198,0.81749 q -1.44253,-0.38326 -2.05529,-0.0485 -0.62736,0.3292 -1.17332,1.75982 z"
         style="stroke:none"
         id="path7403" />
      <path
         d="m 685.2175,424.23062 -8.69373,15.00749 -0.74361,-0.43077 q 0.97902,-1.69003 0.92157,-2.46367 -0.0575,-0.77363 -1.22019,-1.4472 l -11.92487,-6.90798 q -0.54081,-0.31329 -0.96283,-0.39525 -0.43553,-0.0898 -0.73447,-0.0101 -0.30462,0.0583 -0.63423,0.40906 -0.34312,0.34295 -0.56028,0.68665 -0.23068,0.33586 -0.62229,1.01187 l -0.74361,-0.43077 8.2003,-14.15571 4.2917,2.16112 -0.43077,0.74361 -0.6597,-0.20158 q -0.66752,-0.18806 -1.11658,-0.28568 -0.44906,-0.0976 -0.82911,-0.065 -0.38006,0.0326 -0.60925,0.11656 -0.22135,0.0704 -0.47693,0.35573 -0.26126,0.26397 -0.43142,0.52654 -0.16233,0.24906 -0.46779,0.77635 l -2.81959,4.86729 6.44917,3.73595 2.4828,-4.28592 q 0.38378,-0.66249 0.51767,-1.01831 0.14172,-0.36933 0.0529,-0.74584 -0.081,-0.39004 -0.4183,-0.71181 -0.33726,-0.32178 -1.04171,-0.82015 l 0.43077,-0.74361 5.55682,3.21903 -0.43077,0.74361 q -0.79629,-0.371 -1.28591,-0.49212 -0.48178,-0.13463 -0.86044,-0.0109 -0.38434,0.10238 -0.64775,0.40123 -0.25557,0.28532 -0.61585,0.90725 l -2.48281,4.28593 5.02954,2.91357 q 1.29794,0.75189 1.81395,0.6716 0.516,-0.0803 1.12691,-1.13487 l 1.78574,-3.08262 q 0.51692,-0.89233 0.76261,-1.47231 0.25352,-0.59349 0.3419,-1.12012 0.0827,-0.54799 -0.13922,-1.0377 -0.21409,-0.50322 -0.58903,-1.00934 -0.38062,-0.52746 -1.11277,-1.25857 l 0.43077,-0.74361 z"
         style="stroke:none"
         id="path7400" />
      <path
         d="m 699.04425,405.33988 -22.55472,2.67086 9.83792,7.35149 q 0.82608,0.6173 1.33279,0.87891 0.4942,0.25225 1.02856,0.24194 0.53119,-0.0322 1.00544,-0.45801 0.46174,-0.43519 1.06639,-1.34875 l 0.6884,0.51441 -4.58299,6.13306 -0.6884,-0.51442 q 0.53945,-0.6697 0.74797,-1.15756 0.20535,-0.50974 0.1077,-0.95332 -0.11017,-0.45293 -0.44206,-0.81797 -0.34441,-0.3744 -1.00778,-0.87011 l -11.54016,-8.6235 q -0.74659,0.16381 -1.27724,0.50849 -0.54316,0.33533 -1.15757,1.02704 l -0.6884,-0.51442 3.46997,-4.6436 20.61769,-2.40183 -9.17455,-6.85578 q -0.51317,-0.38347 -0.86666,-0.5891 -0.34413,-0.21815 -0.6818,-0.31443 -0.35019,-0.10564 -0.60946,-0.0458 -0.25927,0.0598 -0.58387,0.2854 -0.32461,0.22557 -0.63023,0.58235 -0.30563,0.35679 -0.7327,0.95442 l -0.68841,-0.51442 4.62976,-6.19564 0.6884,0.51442 q -0.51442,0.6884 -0.73861,1.14505 -0.21485,0.44412 -0.17964,0.91906 0.0446,0.46243 0.39846,0.90243 0.36325,0.42749 1.10172,0.97932 l 13.14226,9.82069 z"
         style="stroke:none"
         id="path7397" />
      <path
         d="m 711.08767,392.38263 -17.05717,-6.96526 q -1.6567,-0.67075 -2.32906,-0.561 -0.67236,0.10975 -1.7384,1.20896 l -0.61691,-0.59829 6.85313,-7.06639 0.61691,0.59828 q -1.22888,1.28956 -1.39446,2.02139 -0.1768,0.72095 0.26064,1.14519 0.48231,0.46775 1.72739,0.95697 l 11.88584,4.80137 -4.85769,-11.26271 q -0.74498,-1.74551 -1.24973,-2.23502 -0.56082,-0.5439 -1.23081,-0.27949 -0.68121,0.25354 -1.76901,1.37519 l -0.6169,-0.59829 5.40636,-5.57461 0.6169,0.59829 q -0.38073,0.39258 -0.60747,0.7386 -0.22675,0.34602 -0.29781,0.75595 -0.0714,0.38784 -0.0776,0.70838 0.005,0.30932 0.15597,0.80425 0.16211,0.48371 0.31165,0.86816 0.14954,0.38446 0.44726,1.06498 0.0343,0.0768 0.0574,0.14277 0.034,0.0547 0.0571,0.12068 l 6.80614,15.82959 z"
         style="stroke:none"
         id="path7394" />
      <path
         d="m 709.43366,366.7586 -0.55985,-0.652 6.76889,-5.81223 0.55985,0.652 q -1.23287,1.05862 -1.30336,1.83997 -0.0705,0.78135 1.01866,2.04977 l 8.10252,9.43614 q 1.20112,1.39883 1.99098,1.50321 0.78985,0.10438 2.03959,-1.03052 l 0.55985,0.652 -6.76889,5.81223 -0.55984,-0.652 q 0.57919,-0.47674 0.87542,-0.87527 0.29791,-0.42056 0.38747,-0.72401 0.0912,-0.32547 -0.0786,-0.71512 -0.15796,-0.39983 -0.35819,-0.68098 -0.21041,-0.29301 -0.63793,-0.7909 l -8.48932,-9.88661 q -0.89575,-1.04319 -1.62286,-1.09848 -0.73728,-0.0671 -1.9244,0.9728 z"
         style="stroke:none"
         id="path7391" />
      <path
         d="m 731.6517,362.55574 2.44896,3.43518 q 0.64398,0.90332 1.05591,1.31965 0.40287,0.4036 0.92225,0.51306 0.51938,0.10946 1.06999,-0.16794 0.54155,-0.29012 1.45218,-0.97769 l 0.49886,0.69976 -7.97726,5.68701 -0.49886,-0.69976 q 0.84513,-0.56412 1.25239,-0.98878 0.41997,-0.43372 0.44403,-0.91141 0.0368,-0.48675 -0.17172,-0.91379 -0.19577,-0.43611 -0.7037,-1.14859 l -7.4557,-10.45823 q -0.48979,-0.68703 -0.82916,-1.00158 -0.33938,-0.31454 -0.78796,-0.37852 -0.44493,-0.0858 -0.95738,0.16441 -0.52151,0.23747 -1.3485,0.82703 l -0.49886,-0.69976 q 0.25446,-0.1814 0.75795,-0.57873 0.5035,-0.39732 1.31966,-1.05592 0.81615,-0.65859 1.52322,-1.20104 1.35051,-1.03954 3.14444,-2.31844 1.52675,-1.08842 2.93862,-1.69198 1.4028,-0.61628 2.50001,-0.74605 1.10993,-0.13884 2.06694,0.1 0.96973,0.22975 1.65767,0.73715 0.69159,0.4856 1.21766,1.22353 2.04986,2.87538 -0.25306,6.58956 0.76288,-0.007 3.2255,0.40619 l 2.90755,0.49853 q 2.98565,0.50042 5.0347,0.30613 2.04904,-0.19429 3.78276,-1.1808 l 0.52607,0.73792 q -1.51226,1.13567 -2.71716,1.84113 -1.2049,0.70546 -2.15522,1.09511 -0.94666,0.36786 -1.99298,0.46135 -1.03359,0.0844 -1.88541,0.0201 -0.86089,-0.0771 -2.23385,-0.3072 l -2.37545,-0.39814 q -1.76524,-0.29587 -2.56982,-0.37471 -0.81365,-0.0916 -2.0197,-0.11447 -1.37785,1.13579 -2.31557,1.65078 z m -6.34006,-8.89331 5.81399,8.15538 q 0.58879,-0.30461 0.88141,-0.51323 2.46295,-1.92854 2.82055,-3.66103 0.36125,-1.75428 -1.09905,-3.80267 -1.43309,-2.01022 -3.29458,-2.33342 -1.84876,-0.33228 -3.94804,1.1643 -0.78882,0.56236 -1.17428,0.99067 z"
         style="stroke:none"
         id="path7388" />
      <path
         d="m 747.84863,349.94528 q -1.11964,-2.09452 -1.31294,-4.31217 -0.19329,-2.21764 0.47944,-4.20726 0.67914,-2.01076 2.19034,-3.75761 1.52498,-1.75421 3.74352,-2.94015 3.01776,-1.61318 5.96434,-1.73548 2.93921,-0.13608 5.32469,1.21091 2.39926,1.33962 3.79145,3.94399 1.01652,1.9016 1.20055,4.03562 0.17665,2.12023 -0.4602,4.14382 -0.62307,2.01622 -2.18749,3.86239 -1.558,1.82501 -3.87299,3.06252 -2.90753,1.55425 -5.83296,1.68296 -2.93279,0.11494 -5.30995,-1.18335 -2.38453,-1.31206 -3.7178,-3.80619 z m 2.99846,-2.57731 q 0.88394,1.65357 2.04226,2.85926 1.16473,1.18455 2.40522,1.8148 1.2405,0.63025 2.54678,0.85327 1.29891,0.20923 2.51654,0.001 1.23141,-0.21533 2.32001,-0.79725 2.94887,-1.57635 3.57639,-4.71114 0.63393,-3.15594 -1.26652,-6.71111 -2.04778,-3.83077 -5.34964,-5.2017 -3.30923,-1.3847 -6.42345,0.28004 -3.0591,1.63527 -3.7004,4.77743 -0.6413,3.14216 1.33281,6.83513 z"
         style="stroke:none"
         id="path7385" />
      <path
         d="m 795.69788,338.62963 -20.38231,-10.02049 4.26028,11.51864 q 0.35774,0.96722 0.64079,1.46227 0.27764,0.48039 0.73174,0.76225 0.46333,0.26178 1.09288,0.16221 0.62413,-0.11423 1.62828,-0.55226 l 0.29811,0.80601 -7.18083,2.6559 -0.29811,-0.80601 q 0.81685,-0.2688 1.2571,-0.56491 0.44948,-0.31618 0.60867,-0.74157 0.15378,-0.44004 0.0737,-0.92686 -0.0855,-0.50147 -0.37279,-1.27817 l -4.99743,-13.51169 q -0.71568,-0.26841 -1.34844,-0.2676 -0.63818,-0.0139 -1.52992,0.23266 l -0.29811,-0.80601 5.43692,-2.0109 18.6103,9.19319 -3.97302,-10.74194 q -0.22223,-0.60084 -0.40712,-0.96561 -0.17023,-0.37018 -0.40129,-0.63457 -0.23649,-0.27904 -0.48662,-0.36978 -0.25014,-0.0907 -0.64521,-0.0779 -0.39508,0.0128 -0.84556,0.14614 -0.45048,0.1333 -1.13384,0.4027 l -0.29811,-0.80601 7.25411,-2.683 0.29811,0.80601 q -0.80601,0.29811 -1.24244,0.55949 -0.42178,0.25595 -0.65044,0.67371 -0.214,0.41234 -0.15618,0.97404 0.0725,0.55628 0.39226,1.42091 l 5.69122,15.38749 z"
         style="stroke:none"
         id="path7382" />
      <path
         d="m 802.90109,335.85895 -0.17937,-0.84045 q 1.0391,-0.22175 1.50098,-0.52802 0.45861,-0.32155 0.5967,-1.02205 0.13809,-0.7005 -0.0637,-2.09535 l -1.71013,-11.68158 q -0.0844,-0.84474 -0.2662,-1.39709 -0.16977,-0.57089 -0.32118,-0.90604 -0.15141,-0.33516 -0.4656,-0.45983 -0.31745,-0.13995 -0.66667,-0.12933 -0.35249,-0.005 -0.93316,0.11927 l -0.17937,-0.84045 5.79146,-1.23597 9.84571,13.04486 3.29586,-15.84944 5.79146,-1.23597 0.17936,0.84045 q -1.31416,0.28046 -1.63319,0.73199 -0.30376,0.44827 0.0195,1.51364 l 4.17016,14.00047 q 0.33301,1.11122 0.88722,1.31248 0.56623,0.18272 2.04848,-0.13361 l 0.17936,0.84045 -8.89348,1.89798 -0.17936,-0.84045 q 0.67236,-0.14349 1.10246,-0.29919 0.4301,-0.15569 0.74895,-0.38351 0.31559,-0.24309 0.42498,-0.55402 0.10613,-0.32621 0.13706,-0.78016 0.0277,-0.46924 -0.13333,-1.07395 -0.16427,-0.62 -0.37093,-1.43864 l -3.30587,-11.37299 -0.0611,0.013 -3.74171,17.87779 -1.06966,0.22828 -10.74821,-14.35408 -0.0611,0.013 1.71992,11.72743 q 0.0771,0.51079 0.14982,0.92664 0.0848,0.3973 0.20238,0.7237 0.11433,0.31111 0.18179,0.55235 0.0795,0.22269 0.24412,0.39525 0.17666,0.15402 0.26387,0.26322 0.10249,0.10595 0.35454,0.16399 0.24878,0.0428 0.36553,0.0658 0.11675,0.023 0.44743,3.7e-4 0.34596,-0.0259 0.50203,-0.0432 0.17135,-0.0206 0.60574,-0.0813 l 0.17936,0.84045 z"
         style="stroke:none"
         id="path7379" />
      <path
         d="m 850.77414,328.36582 -17.28065,1.47818 -0.0732,-0.85625 q 1.94602,-0.16646 2.54702,-0.65697 0.60101,-0.4905 0.48648,-1.82936 l -1.17455,-13.73111 q -0.0533,-0.62273 -0.22801,-1.01551 -0.17607,-0.40836 -0.41266,-0.60767 -0.22236,-0.21621 -0.69873,-0.28523 -0.4777,-0.0846 -0.8838,-0.0655 -0.40744,0.003 -1.18584,0.0701 l -0.0733,-0.85625 16.29985,-1.39428 0.68906,4.75545 -0.85625,0.0732 -0.21294,-0.65611 q -0.22852,-0.65478 -0.40592,-1.07871 -0.1774,-0.42392 -0.42198,-0.71664 -0.24459,-0.29272 -0.44473,-0.43242 -0.18456,-0.14103 -0.56486,-0.18691 -0.36606,-0.0628 -0.67875,-0.0517 -0.29713,0.01 -0.90428,0.0617 l -5.60454,0.47941 0.63522,7.42601 4.9351,-0.42215 q 0.76284,-0.0653 1.13115,-0.15948 0.38388,-0.0956 0.64147,-0.3842 0.27315,-0.28996 0.34351,-0.75076 0.0704,-0.46079 0.075,-1.3237 l 0.85624,-0.0732 0.54733,6.3985 -0.85625,0.0732 q -0.15241,-0.86516 -0.33381,-1.33579 -0.16583,-0.47196 -0.48426,-0.71131 -0.3042,-0.25626 -0.70006,-0.30081 -0.38029,-0.0459 -1.09643,0.0154 l -4.9351,0.42215 0.49539,5.79135 q 0.12784,1.49454 0.4894,1.87135 0.36155,0.3768 1.57587,0.27293 l 3.54954,-0.30362 q 1.02749,-0.0879 1.64356,-0.21901 0.63164,-0.13244 1.11384,-0.36187 0.49643,-0.24633 0.77051,-0.70887 0.28964,-0.46388 0.48946,-1.0612 0.21405,-0.61423 0.39348,-1.63323 l 0.85625,-0.0732 z"
         style="stroke:none"
         id="path7376" />
      <path
         d="m 874.17948,328.8505 -15.13297,-16.93641 -0.37319,12.27558 q -0.0313,1.03077 0.0453,1.59586 0.0771,0.54947 0.39224,0.98112 0.33125,0.41651 0.95216,0.56044 0.62139,0.12832 1.71653,0.0991 l -0.0261,0.85898 -7.65271,-0.23265 0.0261,-0.85897 q 0.85803,0.0573 1.37721,-0.0519 0.53528,-0.12442 0.84246,-0.45899 0.30766,-0.35018 0.41609,-0.83149 0.1089,-0.49692 0.13406,-1.32466 l 0.43776,-14.3996 q -0.56266,-0.51733 -1.14949,-0.75402 -0.58636,-0.25231 -1.50543,-0.35842 l 0.0261,-0.85897 5.7942,0.17614 13.80086,15.50465 0.34803,-11.44783 q 0.0195,-0.64033 -0.015,-1.04782 -0.0189,-0.40701 -0.13386,-0.73878 -0.1145,-0.34739 -0.3123,-0.52536 -0.19781,-0.17797 -0.56884,-0.31431 -0.37103,-0.13633 -0.83861,-0.18181 -0.46759,-0.0455 -1.2021,-0.0522 l 0.0261,-0.85898 7.73081,0.23502 -0.0261,0.85898 q -0.85897,-0.0261 -1.36159,0.0524 -0.487,0.079 -0.85571,0.38043 -0.35308,0.30191 -0.51026,0.84426 -0.14156,0.54282 -0.16957,1.46427 l -0.49854,16.39867 z"
         style="stroke:none"
         id="path7373" />
      <path
         d="m 884.22105,314.46073 1.42105,-5.36069 0.84911,0.13241 q 0.15595,0.41967 0.43965,0.52716 0.4024,0.15763 1.5294,0.33338 l 13.38511,2.08725 q 1.2042,0.18778 1.57373,0.15052 0.36953,-0.0373 0.56384,-0.37068 l 0.84912,0.13241 -0.27861,5.53884 -0.9263,-0.14445 q 0.0175,-1.02516 -0.056,-1.66918 -0.0711,-0.65946 -0.21163,-1.07671 -0.14052,-0.41726 -0.48215,-0.6603 -0.32619,-0.24063 -0.67405,-0.34232 -0.34787,-0.10169 -0.99628,-0.2028 l -4.52346,-0.70538 -2.32318,14.89808 q -0.0915,0.58666 -0.11598,0.94656 -0.007,0.34686 0.0818,0.69274 0.10623,0.33284 0.29829,0.52093 0.20991,0.17506 0.62293,0.36597 0.41542,0.17548 0.96639,0.29302 0.55097,0.11755 1.43096,0.25477 l -0.13241,0.84912 -10.85321,-1.69244 0.13241,-0.84911 q 1.63647,0.25519 2.40881,0.17005 0.78778,-0.0827 1.12727,-0.53584 0.35734,-0.46613 0.52827,-1.56226 l 2.32318,-14.89808 -4.52346,-0.70538 q -0.63297,-0.0987 -0.99528,-0.10776 -0.3623,-0.009 -0.76171,0.11843 -0.38398,0.12989 -0.64486,0.48455 -0.26089,0.35466 -0.54486,0.95875 -0.28155,0.58865 -0.57698,1.57048 z"
         style="stroke:none"
         id="path7370" />
      <path
         d="m 915.46252,335.54373 0.27342,-0.81472 q 0.81969,0.25861 1.28894,0.33369 0.47422,0.0603 0.94894,-0.12654 0.49451,-0.19663 0.89557,-0.60592 0.41588,-0.40432 1.07474,-1.23801 l 10.52671,-13.19588 0.0215,-0.84982 3.39219,1.13843 0.62084,17.79406 q 0.0465,1.433 0.18357,2.05586 0.15189,0.62782 0.56615,1.01407 0.43404,0.37641 1.42652,0.70949 l -0.27342,0.81472 -9.02116,-3.02753 0.27343,-0.81472 q 1.79238,0.60153 2.50888,0.57829 0.7165,-0.0232 0.93524,-0.67502 0.17399,-0.51846 0.12711,-1.75382 l -0.20379,-4.25468 -6.94732,-2.33154 -2.83847,3.54684 q -0.60438,0.76957 -0.73861,1.16952 -0.23365,0.69622 0.30886,1.19143 0.56229,0.48537 2.33011,1.01274 l -0.27342,0.81471 z m 9.70284,-6.56664 5.79191,1.94378 -0.32823,-8.64754 z"
         style="stroke:none"
         id="path7367" />
      <path
         d="m 957.14691,352.52507 -6.90244,-21.63805 -5.35101,11.05423 q -0.44932,0.92821 -0.61002,1.47536 -0.15389,0.53308 -0.0424,1.05578 0.1324,0.51543 0.64049,0.90026 0.5149,0.37076 1.5266,0.79106 l -0.37443,0.77351 -6.89131,-3.33587 0.37443,-0.77351 q 0.7599,0.40256 1.27847,0.51471 0.53945,0.10489 0.95644,-0.0752 0.42379,-0.19412 0.71922,-0.58926 0.30224,-0.40919 0.66305,-1.15458 l 6.27688,-12.96691 q -0.30251,-0.70194 -0.74163,-1.15753 -0.43231,-0.46966 -1.22804,-0.94165 l 0.37444,-0.77351 5.2177,2.52573 6.27072,19.78727 4.99019,-10.30884 q 0.27912,-0.57662 0.41394,-0.9627 0.14887,-0.37928 0.17933,-0.72909 0.0373,-0.36387 -0.0707,-0.60707 -0.10795,-0.24321 -0.39102,-0.51911 -0.28307,-0.2759 -0.69137,-0.50826 -0.4083,-0.23237 -1.07611,-0.53827 l 0.37443,-0.77352 6.96163,3.36991 -0.37443,0.77351 q -0.77352,-0.37443 -1.26441,-0.5079 -0.47683,-0.12666 -0.93645,-0.002 -0.44557,0.1315 -0.81042,0.56247 -0.35079,0.43777 -0.75245,1.26754 l -7.14829,14.76709 z"
         style="stroke:none"
         id="path7364" />
      <path
         d="m 968.62948,354.80109 7.02884,-10.6563 q 0.96356,-1.46084 0.75599,-2.25288 -0.18593,-0.79647 -1.74223,-1.78557 l 0.47318,-0.71737 q 0.83476,0.5506 4.30315,2.61372 1.48221,0.90278 3.85607,2.46857 6.22161,4.10374 7.0208,8.0001 0.78144,3.80977 -1.4554,7.201 -0.81731,1.2391 -1.93933,2.20235 -1.12201,0.96325 -2.70498,1.60374 -1.56132,0.63604 -3.33327,0.74009 -1.75031,0.0996 -3.95074,-0.56564 -2.19182,-0.67828 -4.44829,-2.16664 l -8.30852,-5.48025 0.47317,-0.71738 q 1.16085,0.76569 1.80302,0.92721 0.64218,0.16153 1.08704,-0.14402 0.45347,-0.31858 1.0815,-1.27073 z m 11.63286,-11.19462 -8.8097,13.35624 q -0.83451,1.26519 -0.71907,1.828 0.12404,0.54976 1.42836,1.41009 2.2956,1.51416 4.00094,1.96515 1.72699,0.44655 3.35047,0.11355 3.46343,-0.71039 5.87233,-4.36249 2.41751,-3.66514 1.72043,-7.06363 -0.34632,-1.68842 -1.45831,-3.09573 -1.11199,-1.4073 -3.4076,-2.92147 -1.27823,-0.84312 -1.97785,-1.22971 z"
         style="stroke:none"
         id="path7361" />
      <path
         d="m 1011.0781,393.75265 0.4289,-22.70825 -8.624,8.74388 q -0.7242,0.73422 -1.0524,1.20053 -0.3173,0.45519 -0.3799,0.98597 -0.041,0.53062 0.3167,1.0585 0.3681,0.51675 1.1907,1.24029 l -0.6034,0.61185 -5.45105,-5.37629 0.60347,-0.61185 q 0.5899,0.62571 1.04479,0.89879 0.47698,0.27293 0.92973,0.23666 0.46372,-0.0474 0.87056,-0.32643 0.4179,-0.29015 0.9994,-0.87975 l 10.1162,-10.25682 q -0.061,-0.76195 -0.3296,-1.33463 -0.2582,-0.5838 -0.8596,-1.28677 l 0.6034,-0.61185 4.1272,4.07062 -0.4313,20.75264 8.0425,-8.15428 q 0.4499,-0.45611 0.7018,-0.77826 0.263,-0.31119 0.4044,-0.63258 0.1524,-0.33251 0.1285,-0.59752 -0.024,-0.26501 -0.2032,-0.61733 -0.1792,-0.35233 -0.491,-0.70374 -0.3118,-0.35141 -0.8456,-0.85597 l 0.6035,-0.61185 5.5066,5.43116 -0.6035,0.61185 q -0.6118,-0.60346 -1.0336,-0.88782 -0.4107,-0.27339 -0.886,-0.30325 -0.4642,-0.0189 -0.9483,0.27171 -0.4731,0.30159 -1.1204,0.95793 l -11.5206,11.68076 z"
         style="stroke:none"
         id="path7358" />
      <path
         d="m 1015.9327,398.70428 0.6722,-0.53541 q 0.5476,0.66248 0.9008,0.98046 0.3653,0.30825 0.8654,0.40938 0.5219,0.10361 1.081,-0.0221 0.5688,-0.11347 1.5749,-0.45538 l 16.0072,-5.35855 0.4798,-0.70175 2.2292,2.79883 -9.147,15.27568 q -0.7396,1.22829 -0.9629,1.82566 -0.2136,0.6096 -0.076,1.15895 0.1599,0.55183 0.8121,1.3707 l -0.6722,0.53541 -5.9284,-7.44319 0.6722,-0.53541 q 1.1779,1.47886 1.792,1.84865 0.6142,0.36979 1.1519,-0.0585 0.4278,-0.34071 1.0597,-1.4033 l 2.1406,-3.68258 -4.5655,-5.73211 -4.3101,1.43537 q -0.9255,0.31768 -1.2555,0.58052 -0.5745,0.45752 -0.3881,1.16803 0.2083,0.71299 1.4059,2.11625 l -0.6722,0.5354 z m 11.7135,-0.24086 3.8063,4.7788 4.423,-7.43806 z"
         style="stroke:none"
         id="path7355" />
      <path
         d="m 1042.4544,408.3749 4.9755,-2.44964 0.4579,0.72723 q -0.214,0.39325 -0.1087,0.67777 0.1454,0.40696 0.7532,1.37218 l 7.2181,11.46372 q 0.6494,1.03134 0.9202,1.2855 0.2708,0.25416 0.6498,0.18168 l 0.4579,0.72722 -4.3594,3.42808 -0.4995,-0.79333 q 0.7845,-0.66015 1.2218,-1.13861 0.4505,-0.48679 0.6729,-0.86681 0.2223,-0.38003 0.1812,-0.79726 -0.033,-0.40402 -0.1847,-0.73311 -0.1518,-0.32909 -0.5015,-0.88442 l -2.4393,-3.87413 -12.7595,8.03398 q -0.5024,0.31636 -0.7899,0.53429 -0.2659,0.22283 -0.4687,0.51666 -0.1812,0.29873 -0.1968,0.5671 0.01,0.27326 0.1332,0.71009 0.1405,0.4285 0.4138,0.92115 0.2733,0.49265 0.7478,1.24632 l -0.7272,0.4579 -5.8527,-9.29527 0.7272,-0.45789 q 0.8825,1.40156 1.454,1.928 0.5798,0.53966 1.1445,0.49803 0.5862,-0.0367 1.5249,-0.62784 l 12.7595,-8.03398 -2.4393,-3.87413 q -0.3413,-0.54212 -0.5725,-0.82125 -0.2311,-0.27914 -0.5896,-0.49657 -0.3502,-0.20421 -0.7889,-0.16796 -0.4388,0.0362 -1.0809,0.21892 -0.6287,0.17434 -1.5631,0.59649 z"
         style="stroke:none"
         id="path7352" />
      <path
         d="m 1059.5892,428.2778 0.7782,-0.36466 3.8588,8.23443 -0.7782,0.36466 q -0.7492,-1.59878 -1.4698,-1.84777 -0.7065,-0.25562 -2.2345,0.46045 l -7.7817,3.64665 q -2.7873,1.30617 -3.4272,3.6595 -0.6193,2.36084 0.7068,5.19054 0.5967,1.27337 1.3911,2.19527 0.801,0.93605 1.8554,1.52904 1.061,0.60715 2.4316,0.58607 1.3847,-0.0277 2.9269,-0.75041 l 7.7251,-3.62013 q 0.8913,-0.4177 1.3118,-0.73554 0.4272,-0.30369 0.5368,-0.76923 0.1239,-0.47217 -0.045,-0.97974 -0.1547,-0.5142 -0.6056,-1.4763 l 0.7782,-0.36467 3.2886,7.01766 -0.7782,0.36467 q -0.7691,-1.64123 -1.4963,-1.90437 -0.7132,-0.26977 -2.2412,0.4463 l -8.0505,3.77263 q -3.3673,1.57801 -6.3837,0.0754 -3.0098,-1.48849 -4.8928,-5.50667 -1.9294,-4.11721 -1.0546,-7.18454 0.8956,-3.05981 4.4469,-4.72401 l 8.1495,-3.81903 q 1.33,-0.62325 1.5365,-1.32399 0.2132,-0.68658 -0.483,-2.17218 z"
         style="stroke:none"
         id="path7349" />
      <path
         d="m 1063.6381,465.05658 -4.0222,1.27277 q -1.0577,0.33469 -1.5806,0.59849 -0.508,0.25909 -0.772,0.71956 -0.264,0.46048 -0.1695,1.06975 0.1093,0.60455 0.4832,1.6826 l -0.8193,0.25927 -2.9557,-9.34039 0.8194,-0.25927 q 0.2766,0.97773 0.5553,1.49592 0.2834,0.53309 0.7305,0.70299 0.4518,0.18481 0.9223,0.11787 0.4752,-0.052 1.3094,-0.31602 l 12.2453,-3.87488 q 0.8044,-0.25456 1.2081,-0.48065 0.4038,-0.22608 0.6027,-0.6332 0.2186,-0.39693 0.1383,-0.9615 -0.065,-0.56929 -0.3719,-1.53759 l 0.8194,-0.25927 q 0.094,0.29794 0.3173,0.89928 0.2231,0.60135 0.5985,1.58059 0.3754,0.97924 0.6739,1.81894 0.5734,1.60491 1.2381,3.70538 0.5657,1.78763 0.7054,3.31673 0.1546,1.52439 -0.06,2.60828 -0.2095,1.09878 -0.7313,1.93582 -0.517,0.85195 -1.2115,1.35032 -0.6749,0.50856 -1.5389,0.78197 -3.3668,1.06536 -6.1918,-2.26895 -0.2286,0.72787 -1.3793,2.94391 l -1.3692,2.61296 q -1.3951,2.6867 -1.8409,4.69608 -0.4458,2.00937 -0.041,3.96256 l -0.864,0.27341 q -0.6151,-1.78838 -0.9154,-3.15192 -0.3004,-1.36354 -0.3786,-2.38766 -0.059,-1.01393 0.1744,-2.03823 0.2378,-1.0094 0.5612,-1.80006 0.3383,-0.79538 0.9799,-2.03086 l 1.1099,-2.13759 q 0.8248,-1.58849 1.1475,-2.32975 0.3375,-0.74597 0.7305,-1.88642 -0.6566,-1.66054 -0.8579,-2.71124 z m 10.4129,-3.29507 -9.5489,3.02166 q 0.1086,0.65395 0.217,0.99658 1.0769,2.93697 2.6152,3.81044 1.5579,0.88365 3.9564,0.1247 2.3537,-0.74481 3.2341,-2.41645 0.8852,-1.65675 0.1074,-4.11474 -0.2923,-0.92361 -0.5812,-1.42219 z"
         style="stroke:none"
         id="path7346" />
      <path
         d="m 1061.6728,486.95449 0.8451,-0.15599 q 0.1714,0.84226 0.3333,1.28904 0.1773,0.44395 0.5709,0.76852 0.4117,0.3371 0.9642,0.48935 0.5552,0.16762 1.6039,0.3395 l 16.6453,2.80638 0.7536,-0.39334 0.6495,3.51868 -15.2604,9.17249 q -1.2306,0.73561 -1.7089,1.15755 -0.4753,0.43731 -0.6122,0.98692 -0.1187,0.56213 0.071,1.59161 l -0.8451,0.156 -1.7273,-9.35754 0.8451,-0.156 q 0.3432,1.85922 0.711,2.47455 0.3678,0.61533 1.0439,0.49054 0.5378,-0.0993 1.5954,-0.73939 l 3.622,-2.24159 -1.3302,-7.20639 -4.4784,-0.76223 q -0.9661,-0.15533 -1.3809,-0.0788 -0.7222,0.13331 -0.8922,0.84791 -0.1518,0.72713 0.2444,2.52891 l -0.8451,0.15599 z m 10.4483,5.30084 1.109,6.00788 7.4034,-4.48081 z"
         style="stroke:none"
         id="path7343" />
      <path
         d="m 1067.0609,526.86863 -1.1537,-15.44133 0.857,-0.064 q 0.079,1.05954 0.1799,1.56908 0.1175,0.52395 0.4271,0.89253 0.3251,0.36742 0.8475,0.43808 0.5379,0.0695 1.5195,-0.004 l 12.6367,-0.94415 q 0.6077,-0.0454 0.9637,-0.10334 0.3561,-0.0579 0.7063,-0.19379 0.3502,-0.13584 0.5065,-0.35121 0.173,-0.20095 0.2865,-0.5698 0.1302,-0.35444 0.1241,-0.85538 0.01,-0.5021 -0.061,-1.23327 l 0.8569,-0.064 0.7824,10.47081 -0.857,0.064 q -0.073,-0.98163 -0.1274,-1.49466 -0.054,-0.51303 -0.1859,-1.02024 -0.1307,-0.49162 -0.2861,-0.6837 -0.1542,-0.17651 -0.4798,-0.3402 -0.3244,-0.14811 -0.7163,-0.15017 -0.3763,-0.003 -1.0151,0.0445 l -13.4625,1.00585 q -0.9816,0.0733 -1.2544,0.40709 -0.2716,0.34933 -0.1901,1.44004 l 0.2445,3.27213 q 0.058,0.77908 0.1029,1.16746 0.045,0.38837 0.221,0.86092 0.1763,0.47255 0.334,0.6958 0.1744,0.23766 0.6601,0.65577 0.5012,0.41694 0.9787,0.72597 0.4942,0.32345 1.4803,0.93919 l 0.072,0.96606 z"
         style="stroke:none"
         id="path7340" />
      <path
         d="m 1074.7659,552.3697 -4.1955,-0.44232 q -1.1032,-0.11631 -1.688,-0.0837 -0.5692,0.0343 -0.9954,0.35069 -0.4261,0.31644 -0.5832,0.91263 -0.1416,0.59783 -0.2301,1.73544 l -0.8547,-0.0901 1.0272,-9.74288 0.8546,0.0901 q -0.1375,1.00675 -0.089,1.59316 0.046,0.60194 0.3883,0.9365 0.3402,0.35009 0.7982,0.47694 0.4563,0.14238 1.3265,0.23412 l 12.773,1.34661 q 0.8391,0.0885 1.2995,0.0427 0.4605,-0.0457 0.8057,-0.33928 0.359,-0.27637 0.5113,-0.82594 0.1677,-0.54794 0.2742,-1.55796 l 0.8546,0.0901 q -0.033,0.31078 -0.069,0.95115 -0.036,0.64037 -0.084,1.68802 -0.048,1.04766 -0.1099,1.93666 -0.1164,1.70029 -0.3474,3.89127 -0.1966,1.86466 -0.6802,3.322 -0.468,1.45896 -1.0979,2.36667 -0.6316,0.92326 -1.4446,1.48171 -0.8147,0.574 -1.6505,0.75298 -0.822,0.19615 -1.7233,0.10113 -3.5118,-0.37024 -4.7673,-4.55619 -0.5006,0.57568 -2.4416,2.14646 l -2.3001,1.84715 q -2.3533,1.90439 -3.5656,3.5677 -1.2123,1.66331 -1.6224,3.61545 l -0.9012,-0.095 q 0.1516,-1.88512 0.4217,-3.25497 0.2701,-1.36986 0.608,-2.33977 0.3518,-0.95274 0.9752,-1.7983 0.6217,-0.83001 1.2344,-1.42531 0.6282,-0.59366 1.7103,-1.4694 l 1.8723,-1.51517 q 1.3914,-1.12595 1.9836,-1.67627 0.6077,-0.54868 1.4241,-1.43673 0.062,-1.78454 0.2981,-2.82808 z m 10.8617,1.14511 -9.9604,-1.05009 q -0.162,0.6428 -0.1997,1.0002 -0.1878,3.12252 0.8727,4.53839 1.0744,1.43304 3.5762,1.6968 2.4551,0.25883 3.9307,-0.92108 1.474,-1.16438 1.7443,-3.7283 0.1016,-0.96341 0.036,-1.53592 z"
         style="stroke:none"
         id="path7337" />
      <path
         d="m 1060.3261,588.55776 3.7753,-16.92786 0.8388,0.18706 q -0.4252,1.90629 -0.1376,2.62679 0.2875,0.7205 1.5991,1.013 l 13.4508,2.99985 q 0.61,0.13605 1.0371,0.0872 0.4424,-0.0454 0.7035,-0.21131 0.273,-0.14723 0.4817,-0.58094 0.2241,-0.4303 0.3278,-0.8234 0.1189,-0.38971 0.289,-1.15223 l 0.8387,0.18707 -3.561,15.96709 -4.7431,-0.76966 0.1871,-0.83877 0.6897,-0.006 q 0.6932,-0.0215 1.1508,-0.0635 0.4577,-0.042 0.8103,-0.1875 0.3526,-0.14548 0.5459,-0.29447 0.1899,-0.13374 0.3478,-0.48275 0.1698,-0.33035 0.253,-0.63195 0.08,-0.28636 0.2125,-0.88112 l 1.2245,-5.49012 -7.2744,-1.62237 -1.0782,4.83436 q -0.1667,0.74726 -0.1873,1.12687 -0.024,0.39487 0.174,0.72719 0.1946,0.34758 0.6131,0.55297 0.4184,0.20538 1.2402,0.4687 l -0.1871,0.83877 -6.2678,-1.39789 0.187,-0.83877 q 0.871,0.11422 1.3744,0.0824 0.5,-0.0166 0.8239,-0.2485 0.3357,-0.21329 0.497,-0.57754 0.1579,-0.349 0.3143,-1.05052 l 1.0782,-4.83435 -5.6731,-1.26524 q -1.4641,-0.32652 -1.932,-0.0947 -0.4679,0.23182 -0.7332,1.42135 l -0.7755,3.47707 q -0.2245,1.00652 -0.2843,1.63354 -0.063,0.64227 0.011,1.1711 0.086,0.54747 0.445,0.94771 0.3556,0.41549 0.8654,0.78534 0.5217,0.38851 1.4399,0.86544 l -0.187,0.83877 z"
         style="stroke:none"
         id="path7334" />
      <path
         d="m 1058.6595,593.168 5.513,0.92844 -0.298,0.92177 q -2.279,-0.11277 -3.866,0.88492 -1.587,0.99768 -2.2214,2.96017 -0.5384,1.66514 -0,3.00431 0.5359,1.33917 1.9186,1.78618 0.8623,0.27878 1.8531,0.008 0.9859,-0.25599 1.9289,-0.88713 0.9579,-0.62634 1.9734,-1.43108 1.0156,-0.80474 2.0757,-1.59507 1.0554,-0.77545 2.0876,-1.37775 1.0471,-0.5975 2.2013,-0.81549 1.1495,-0.20312 2.22,0.14296 1.9624,0.63447 2.6917,2.59448 0.7442,1.96483 -0.049,4.41793 -0.3364,1.04072 -1.0074,2.25246 -0.632,1.14222 -0.7618,1.54364 -0.173,0.53522 0.083,0.96279 l -0.2452,0.75823 -4.934,-0.83979 0.298,-0.92177 q 2.0201,-0.1023 3.4785,-1.10871 1.4685,-0.98673 1.9924,-2.60726 0.4518,-1.39753 -0.022,-2.42102 -0.4589,-1.01869 -1.5145,-1.35996 -0.6541,-0.21149 -1.3694,-0.0815 -0.7154,0.13002 -1.3987,0.51668 -0.6881,0.40154 -1.4243,0.95174 -0.741,0.56508 -1.5061,1.20449 -0.765,0.63941 -1.555,1.25434 -0.7799,0.63461 -1.6202,1.15117 -0.8451,0.53143 -1.692,0.86522 -0.8516,0.34866 -1.8197,0.39696 -0.9532,0.0531 -1.8898,-0.24971 -2.349,-0.75944 -3.2345,-3.0491 -0.8706,-2.28486 0.076,-5.21373 0.4278,-1.32319 1.1188,-2.49559 0.6714,-1.16233 0.7483,-1.40021 0.173,-0.53522 -0.063,-0.92345 z"
         style="stroke:none"
         id="path7331" />
      <path
         d="m 1061.9847,614.13994 q 2.1627,0.98148 3.665,2.62415 1.5024,1.64267 2.1786,3.6311 0.684,2.00912 0.547,4.31487 -0.1435,2.31996 -1.1831,4.61073 -1.4141,3.11601 -3.6785,5.00535 -2.2502,1.89579 -4.963,2.2776 -2.7192,0.39604 -5.4084,-0.82435 -1.9635,-0.89108 -3.4076,-2.47301 -1.4298,-1.57547 -2.1552,-3.56905 -0.7318,-1.97935 -0.613,-4.39629 0.1266,-2.39625 1.2114,-4.78662 1.3625,-3.00218 3.6062,-4.88375 2.258,-1.87511 4.9345,-2.29052 2.6908,-0.40895 5.2661,0.75979 z m -0.8123,3.86954 q -1.7074,-0.77485 -3.3602,-1.02731 -1.645,-0.23178 -3.013,0.0225 -1.368,0.25427 -2.5405,0.8718 -1.1583,0.62399 -1.9983,1.52969 -0.8464,0.91993 -1.3565,2.04397 -1.3818,3.04487 0.027,5.91478 1.4164,2.8906 5.0874,4.55653 3.9554,1.79508 7.4101,0.87488 3.469,-0.91374 4.9283,-4.12935 1.4335,-3.1587 0.031,-6.04284 -1.4022,-2.88414 -5.2154,-4.61465 z"
         style="stroke:none"
         id="path7328" />
      <path
         d="m 1057.9789,645.29449 0.7277,0.45716 -4.8376,7.70029 -0.7276,-0.45716 q 0.9392,-1.49507 0.7587,-2.23584 -0.1672,-0.73245 -1.5961,-1.63014 l -7.2769,-4.57156 q -2.6065,-1.63746 -4.9319,-0.9025 -2.3205,0.75649 -3.9829,3.40264 -0.7481,1.19076 -1.0936,2.35762 -0.3539,1.18008 -0.2822,2.38766 0.063,1.2208 0.8227,2.36206 0.7724,1.14958 2.2146,2.05558 l 7.224,4.53832 q 0.8335,0.52365 1.3283,0.70533 0.4865,0.19491 0.9374,0.0353 0.4641,-0.1513 0.7996,-0.5679 0.3488,-0.40828 0.914,-1.30797 l 0.7277,0.45715 -4.1228,6.56245 -0.7277,-0.45716 q 0.9642,-1.53476 0.7921,-2.28876 -0.159,-0.74568 -1.5879,-1.64337 l -7.5283,-4.72949 q -3.1489,-1.97825 -3.5171,-5.32804 -0.3765,-3.33656 1.9841,-7.09409 2.4188,-3.85014 5.4717,-4.77388 3.0579,-0.90219 6.3788,1.18411 l 7.6209,4.78768 q 1.2437,0.78132 1.9448,0.57592 0.6927,-0.19218 1.5655,-1.58141 z"
         style="stroke:none"
         id="path7325" />
      <path
         d="m 1029.2413,668.60026 -3.2464,-2.69415 q -0.8537,-0.70846 -1.3585,-1.00552 -0.4927,-0.28707 -1.0228,-0.25998 -0.5301,0.0271 -0.9914,0.43615 -0.4493,0.41904 -1.1536,1.31674 l -0.6614,-0.54881 6.2565,-7.53897 0.6613,0.54881 q -0.6727,0.7616 -0.9577,1.27633 -0.295,0.52675 -0.196,0.99469 0.089,0.47995 0.3998,0.83942 0.3009,0.3715 0.9742,0.93028 l 9.8836,8.2022 q 0.6493,0.53883 1.0579,0.75606 0.4085,0.21723 0.8585,0.16429 0.4521,-0.0309 0.8835,-0.40392 0.4434,-0.36301 1.092,-1.14456 l 0.6613,0.54881 q -0.1996,0.24048 -0.5847,0.75341 -0.385,0.51294 -1.0055,1.35845 -0.6204,0.84551 -1.1651,1.55083 -1.0396,1.35051 -2.4465,3.04588 -1.1974,1.44286 -2.4079,2.38761 -1.1984,0.95472 -2.2258,1.36094 -1.0375,0.41824 -2.0237,0.43226 -0.9963,0.026 -1.7911,-0.28843 -0.7929,-0.29247 -1.4903,-0.87121 -2.7173,-2.2551 -1.4415,-6.43492 -0.7358,0.20156 -3.2221,0.4327 l -2.9383,0.26208 q -3.0143,0.28024 -4.9454,0.99239 -1.9311,0.71215 -3.3547,2.10946 l -0.6973,-0.57874 q 1.1713,-1.48483 2.1555,-2.47512 0.9843,-0.9903 1.8033,-1.61015 0.821,-0.59785 1.8085,-0.95597 0.9776,-0.3461 1.8175,-0.50186 0.852,-0.14578 2.2381,-0.27465 l 2.3983,-0.22296 q 1.7822,-0.16569 2.5801,-0.29536 0.81,-0.11969 1.9818,-0.40616 1.0413,-1.45055 1.816,-2.18835 z m 8.4047,6.97486 -7.7073,-6.39611 q -0.4912,0.44513 -0.7207,0.72168 -1.8875,2.49458 -1.7898,4.26089 0.1,1.78831 2.0355,3.39483 1.8997,1.57657 3.782,1.41268 1.8722,-0.15186 3.5186,-2.1358 0.6187,-0.74548 0.8817,-1.25817 z"
         style="stroke:none"
         id="path7322" />
      <path
         d="m 997.04156,698.00518 -2.05795,-5.38865 q 0.54907,-0.21318 0.94889,-0.58629 0.41125,-0.38378 1.73109,-2.10698 1.30919,-1.73463 2.41731,-2.76868 1.9991,-1.86556 4.1322,-2.80891 2.1216,-0.93269 4.1,-0.91959 1.967,0.0238 3.7741,0.83797 1.8062,0.83629 3.2773,2.41274 1.13,1.2109 1.8762,2.65175 0.7462,1.44084 1.0095,3.09716 0.2634,1.65632 -0.027,3.33772 -0.2796,1.69283 -1.2918,3.47089 -1.0236,1.78872 -2.7486,3.39843 -1.1081,1.03405 -2.3974,1.8739 -1.2893,0.83985 -2.2016,1.32791 -0.9238,0.49872 -1.1523,0.71193 -0.2627,0.24518 -0.2734,0.55436 l -0.5826,0.54367 -3.7288,-3.7439 0.7082,-0.66094 q 2.3355,1.19729 4.6132,0.86697 2.2777,-0.33032 4.2197,-2.14257 2.6275,-2.45188 2.5539,-5.75991 -0.074,-3.30803 -2.8347,-6.26674 -1.8762,-2.01055 -4.2223,-2.89866 -2.347,-0.86603 -4.6498,-0.44814 -2.3029,0.41789 -4.0621,2.05958 -1.72497,1.60971 -2.36634,3.85385 -0.64214,2.26622 -0.0682,4.85085 z"
         style="stroke:none"
         id="path7319" />
      <path
         d="m 977.1128,706.30179 13.90653,-10.36407 0.51353,0.68906 q -1.56605,1.16712 -1.81828,1.90074 -0.25222,0.73361 0.55076,1.81105 l 8.23523,11.05006 q 0.37348,0.50114 0.729,0.74284 0.36486,0.25423 0.67097,0.29891 0.30296,0.0666 0.74416,-0.12586 0.4505,-0.17988 0.7856,-0.41012 0.3444,-0.2177 0.9708,-0.68455 l 0.5136,0.68906 -13.11727,9.77584 -3.09198,-3.67816 0.68907,-0.51353 0.52677,0.44535 q 0.53931,0.43602 0.9135,0.70278 0.37419,0.26676 0.73633,0.38661 0.36213,0.11985 0.60585,0.13309 0.23118,0.0226 0.57855,-0.13887 0.34417,-0.13958 0.60408,-0.31379 0.24737,-0.16487 0.73598,-0.52902 l 4.51023,-3.36132 -4.45375,-5.97605 -3.97151,2.95983 q -0.61389,0.45751 -0.87722,0.73171 -0.27587,0.28354 -0.34265,0.66459 -0.0793,0.39039 0.10377,0.81907 0.18307,0.42868 0.63396,1.16443 l -0.68906,0.51354 -3.83751,-5.14918 0.68906,-0.51353 q 0.58552,0.6549 0.98772,0.95925 0.38968,0.31368 0.78644,0.34926 0.39358,0.0574 0.75348,-0.11333 0.34736,-0.16145 0.92367,-0.59095 l 3.97151,-2.95983 -3.47337,-4.66057 q -0.89635,-1.20273 -1.40221,-1.33239 -0.50586,-0.12966 -1.48307,0.59863 l -2.85648,2.12883 q -0.82688,0.61624 -1.28133,1.05237 -0.46698,0.44546 -0.75584,0.89458 -0.29206,0.47099 -0.28119,1.00853 -0.002,0.54687 0.14335,1.15981 0.14183,0.63481 0.52641,1.59536 l -0.68906,0.51353 z"
         style="stroke:none"
         id="path7316" />
      <path
         d="m 972.83138,708.69268 3.58518,4.28968 -0.82572,0.50662 q -1.65824,-1.56733 -3.51269,-1.84106 -1.85445,-0.27373 -3.61243,0.80488 -1.49163,0.91518 -1.9551,2.28111 -0.46348,1.36593 0.29645,2.60451 0.47394,0.77244 1.40281,1.21077 0.91555,0.4465 2.04239,0.58005 1.13501,0.14686 2.42984,0.19567 1.29482,0.0488 2.61416,0.13758 1.30602,0.0969 2.48189,0.31039 1.18403,0.22678 2.20279,0.8116 1.00544,0.593 1.59377,1.5519 1.07861,1.75798 0.35843,3.72136 -0.712,1.97671 -2.90948,3.32497 -0.93226,0.57199 -2.22985,1.05649 -1.22282,0.45696 -1.58241,0.67758 -0.47945,0.29417 -0.56301,0.7854 l -0.67922,0.41673 -3.20294,-3.84594 0.82572,-0.50662 q 1.60136,1.23561 3.3638,1.41913 1.7573,0.20502 3.20897,-0.68565 1.2519,-0.7681 1.55736,-1.85376 0.31363,-1.07235 -0.26653,-2.01793 -0.35953,-0.586 -0.98756,-0.95227 -0.62802,-0.36627 -1.39861,-0.51674 -0.78391,-0.14231 -1.701,-0.2029 -0.93041,-0.0524 -1.92741,-0.064 -0.997,-0.0116 -1.99702,-0.0579 -1.00517,-0.0249 -1.97946,-0.1787 -0.98761,-0.14564 -1.84808,-0.44262 -0.8738,-0.2888 -1.64073,-0.88148 -0.75876,-0.57936 -1.27355,-1.4184 -1.29107,-2.10425 -0.47522,-4.41964 0.82401,-2.30206 3.44767,-3.91181 1.1853,-0.72724 2.47259,-1.16876 1.2658,-0.44667 1.47889,-0.57741 0.47945,-0.29416 0.55273,-0.74242 z"
         style="stroke:none"
         id="path7313" />
      <path
         d="m 1088.7188,-2.734375 q 0.6093,-0.53125 1.5468,-0.53125 0.9375,0 1.5157,0.515625 0.5937,0.515625 0.5937,1.34375 0,0.8125 -0.5781,1.296875 -0.5625,0.46875 -1.5313,0.46875 -0.9843,0 -1.5625,-0.46875 -0.5781,-0.484375 -0.5781,-1.296875 0,-0.8125 0.5938,-1.328125 z"
         style="stroke:none"
         id="path7310" />
    </g>
    <path
       style="fill:none;stroke:none;stroke-width:1.00229;stroke-dasharray:none;stroke-opacity:1"
       id="path3648"
       sodipodi:type="arc"
       sodipodi:cx="860.10315"
       sodipodi:cy="535.32971"
       sodipodi:rx="206.99886"
       sodipodi:ry="206.99886"
       sodipodi:start="2.1047468"
       sodipodi:end="1.0666541"
       sodipodi:arc-type="arc"
       d="M 754.75359,713.515 A 206.99886,206.99886 0 0 1 660.85008,479.23391 206.99886,206.99886 0 0 1 863.18817,328.35385 206.99886,206.99886 0 0 1 1060.9396,485.19733 206.99886,206.99886 0 0 1 960.0953,716.57566"
       sodipodi:open="true" />
    <path
       style="fill:none;stroke:none;stroke-width:0.993484;stroke-dasharray:none;stroke-opacity:1"
       id="path3648-1"
       transform="scale(1,-1)"
       sodipodi:type="arc"
       sodipodi:cx="859.62817"
       sodipodi:cy="-534.85474"
       sodipodi:rx="228.00327"
       sodipodi:ry="228.00327"
       sodipodi:start="4.4950219"
       sodipodi:end="5.0501338"
       sodipodi:arc-type="arc"
       d="m 810.45712,-757.49278 a 228.00327,228.00327 0 0 1 124.72225,7.51597"
       sodipodi:open="true" />
    <g
       aria-label="1987"
       id="text4937"
       style="font-weight:600;font-size:32px;line-height:0px;font-family:'Bembo Std';-inkscape-font-specification:'Bembo Std Semi-Bold';letter-spacing:8px;fill:#006c35">
      <path
         d="m 814.00971,758.29465 0.15497,-0.84529 1.52152,0.27896 q 0.98361,0.18033 1.27459,-0.0205 0.29098,-0.20081 0.4685,-1.16905 l 2.63456,-14.36986 q -1.87398,0.86372 -4.20569,1.27815 l -0.20287,-0.7997 q 4.13039,-1.38727 6.60172,-3.60293 l 1.4293,0.26205 -3.2601,17.78174 q -0.16061,0.87603 0.0779,1.22157 0.23847,0.34555 1.12986,0.50897 l 1.56762,0.28741 -0.15497,0.84529 z"
         id="path7465" />
      <path
         d="m 838.13589,762.40691 -0.32652,-0.66664 q 2.02584,-0.69561 3.53925,-1.6643 1.5134,-0.96869 2.44511,-2.12159 0.94844,-1.16733 1.4848,-2.27126 0.55195,-1.10278 0.93543,-2.46875 -2.17658,1.24846 -4.13992,1.10264 -2.39964,-0.17823 -3.78727,-1.95777 -1.38762,-1.77954 -1.19203,-4.41292 0.20716,-2.78919 2.15471,-4.54037 1.9643,-1.76561 4.62884,-1.5677 2.8671,0.21294 4.61588,2.6147 1.74879,2.40175 1.47682,6.06354 -0.35415,4.76812 -3.46892,7.88973 -3.11361,3.10604 -8.36618,4.00069 z m 8.28374,-10.27403 q 0.21484,-0.78311 0.37108,-2.88669 0.22105,-2.97618 -0.54676,-4.66268 -0.76782,-1.6865 -2.40394,-1.80802 -1.52704,-0.11342 -2.41378,1.27784 -0.87115,1.39243 -1.07715,4.16604 -0.36341,4.89277 2.64394,5.11614 1.43355,0.10647 3.42661,-1.20263 z"
         id="path7462" />
      <path
         d="m 860.61343,747.70725 q -0.0728,-2.20192 1.58037,-3.74175 1.65264,-1.55545 4.19812,-1.63959 2.51425,-0.0831 4.27852,1.26559 1.76376,1.33308 1.83035,3.34761 0.0496,1.49918 -0.97313,2.72113 -1.00707,1.22144 -2.84582,1.87629 2.58988,1.25888 3.63115,2.49077 1.04075,1.21628 1.1027,3.09026 0.0841,2.54549 -1.71847,4.29349 -1.80261,1.74801 -4.61358,1.84093 -2.68603,0.0888 -4.56478,-1.41246 -1.86313,-1.50177 -1.93953,-3.81301 -0.10943,-3.31069 3.98983,-5.10335 -2.06783,-1.07289 -2.98313,-2.27768 -0.91582,-1.22041 -0.9726,-2.93823 z m 2.43385,-1.09663 q 0.0454,1.37425 1.03003,2.31098 1.00023,0.93622 3.79364,2.204 1.14439,-0.85077 1.64231,-1.86778 0.49793,-1.017 0.45302,-2.37564 -0.0578,-1.74904 -1.0445,-2.74824 -0.98719,-1.01481 -2.59568,-0.96164 -1.43672,0.0475 -2.38855,1.04823 -0.93673,0.98461 -0.89027,2.39009 z m 0.21705,11.29587 q 0.0666,2.01453 1.15419,3.22926 1.08709,1.19911 2.75805,1.14388 1.57726,-0.0521 2.60202,-1.21163 1.04037,-1.16 0.98565,-2.81535 -0.0232,-0.70274 -0.19488,-1.16607 -0.17217,-0.47895 -0.70765,-1.07096 -0.53547,-0.592 -1.61907,-1.21279 -1.08412,-0.63641 -2.86104,-1.42188 -1.15691,0.94498 -1.66838,2.02497 -0.49586,1.07947 -0.44889,2.50057 z"
         id="path7459" />
      <path
         d="m 888.11648,761.61776 4.97208,-18.54881 -7.41093,1.046 q -0.46415,0.0655 -0.72498,0.11811 -0.26302,0.0371 -0.49528,0.18036 -0.21897,0.12559 -0.30088,0.21605 -0.0819,0.0905 -0.14872,0.39971 -0.069,0.29377 -0.0827,0.5324 -0.0137,0.23862 -0.0279,0.80871 l -0.91283,0.12884 -0.41412,-4.72285 12.73317,-1.79721 0.13976,0.99019 -4.82033,20.29473 z"
         id="path7456" />
    </g>
  </g>
  <g
     inkscape:groupmode="layer"
     id="layer3"
     inkscape:label="Tree"
     style="display:inline"
     transform="translate(-612.15509,-287.67891)" />
  <g
     inkscape:groupmode="layer"
     id="layer2"
     inkscape:label="Green"
     style="display:inline"
     transform="translate(-612.15509,-287.67891)" />
  <g
     inkscape:groupmode="layer"
     id="layer4"
     inkscape:label="Lines"
     style="display:inline"
     transform="translate(-612.15509,-287.67891)" />
</svg>
